<mxfile host="app.diagrams.net" agent="Mozilla/5.0 (Windows NT 10.0; Win64; x64) AppleWebKit/537.36 (KHTML, like Gecko) Chrome/140.0.0.0 Safari/537.36" version="28.2.1" pages="3">
  <diagram name="Cau4_AD" id="O8xDzhN6_V8IS1MV9opa">
    <mxGraphModel grid="0" page="0" gridSize="10" guides="1" tooltips="1" connect="1" arrows="1" fold="1" pageScale="1" pageWidth="1169" pageHeight="827" math="0" shadow="0">
      <root>
        <mxCell id="0" />
        <mxCell id="1" parent="0" />
        <UserObject label="" plantUmlData="{&#xa;  &quot;data&quot;: &quot;@startuml\nstart\n:Buyer đăng nhập hệ thống;\n:Buyer chọn sản phẩm trong danh mục;\n:Hiển thị trang chi tiết sản phẩm;\n\n:Buyer nhấn \&quot;Mua hàng\&quot;;\nif (Sản phẩm còn hàng?) then (Yes)\n  :Thêm sản phẩm vào giỏ hàng;\n  :Cập nhật tổng giỏ hàng;\n  :Hiển thị giỏ hàng mới;\n  if (Buyer chọn \&quot;Thanh toán\&quot;?) then (Yes)\n    :Chuyển đến quy trình thanh toán;\n  else (No)\n    :Quay lại trang chi tiết hoặc tiếp tục mua sắm;\n  endif\nelse (No)\n  :Thông báo \&quot;Sản phẩm hết hàng\&quot;;\nendif\nstop\n@enduml&quot;,&#xa;  &quot;format&quot;: &quot;svg&quot;&#xa;}" id="uW8zo2THKl9KAkLzZNKO-3">
          <mxCell style="shape=image;noLabel=1;verticalAlign=top;aspect=fixed;imageAspect=0;image=data:image/svg+xml,PHN2ZyB4bWxucz0iaHR0cDovL3d3dy53My5vcmcvMjAwMC9zdmciIHhtbG5zOnhsaW5rPSJodHRwOi8vd3d3LnczLm9yZy8xOTk5L3hsaW5rIiBjb250ZW50U3R5bGVUeXBlPSJ0ZXh0L2NzcyIgZGF0YS1kaWFncmFtLXR5cGU9IkFDVElWSVRZIiBoZWlnaHQ9IjYzM3B4IiBwcmVzZXJ2ZUFzcGVjdFJhdGlvPSJub25lIiBzdHlsZT0id2lkdGg6NzYycHg7aGVpZ2h0OjYzM3B4O2JhY2tncm91bmQ6I0ZGRkZGRjsiIHZlcnNpb249IjEuMSIgdmlld0JveD0iMCAwIDc2MiA2MzMiIHdpZHRoPSI3NjJweCIgem9vbUFuZFBhbj0ibWFnbmlmeSI+PGRlZnMvPjxnPjxlbGxpcHNlIGN4PSI0NTEiIGN5PSIyMCIgZmlsbD0iIzIyMjIyMiIgcng9IjEwIiByeT0iMTAiIHN0eWxlPSJzdHJva2U6IzIyMjIyMjtzdHJva2Utd2lkdGg6MTsiLz48cmVjdCBmaWxsPSIjRjFGMUYxIiBoZWlnaHQ9IjMyLjg0MzgiIHJ4PSIxMi41IiByeT0iMTIuNSIgc3R5bGU9InN0cm9rZTojMTgxODE4O3N0cm9rZS13aWR0aDowLjU7IiB3aWR0aD0iMTY0IiB4PSIzNjkiIHk9IjUwIi8+PHRleHQgZmlsbD0iIzAwMDAwMCIgZm9udC1mYW1pbHk9InNhbnMtc2VyaWYiIGZvbnQtc2l6ZT0iMTIiIGxlbmd0aEFkanVzdD0ic3BhY2luZyIgdGV4dExlbmd0aD0iMTQ0IiB4PSIzNzkiIHk9IjcxLjM0MzgiPkJ1eWVyICYjMjczOyYjMjU5O25nIG5oJiM3ODUzO3AgaCYjNzg3OTsgdGgmIzc4ODk7bmc8L3RleHQ+PHJlY3QgZmlsbD0iI0YxRjFGMSIgaGVpZ2h0PSIzMi44NDM4IiByeD0iMTIuNSIgcnk9IjEyLjUiIHN0eWxlPSJzdHJva2U6IzE4MTgxODtzdHJva2Utd2lkdGg6MC41OyIgd2lkdGg9IjIyNCIgeD0iMzM5IiB5PSIxMDIuODQzOCIvPjx0ZXh0IGZpbGw9IiMwMDAwMDAiIGZvbnQtZmFtaWx5PSJzYW5zLXNlcmlmIiBmb250LXNpemU9IjEyIiBsZW5ndGhBZGp1c3Q9InNwYWNpbmciIHRleHRMZW5ndGg9IjIwNCIgeD0iMzQ5IiB5PSIxMjQuMTg3NSI+QnV5ZXIgY2gmIzc4ODU7biBzJiM3ODQzO24gcGgmIzc4NDk7bSB0cm9uZyBkYW5oIG0mIzc5MDk7YzwvdGV4dD48cmVjdCBmaWxsPSIjRjFGMUYxIiBoZWlnaHQ9IjMyLjg0MzgiIHJ4PSIxMi41IiByeT0iMTIuNSIgc3R5bGU9InN0cm9rZTojMTgxODE4O3N0cm9rZS13aWR0aDowLjU7IiB3aWR0aD0iMjEyIiB4PSIzNDUiIHk9IjE1NS42ODc1Ii8+PHRleHQgZmlsbD0iIzAwMDAwMCIgZm9udC1mYW1pbHk9InNhbnMtc2VyaWYiIGZvbnQtc2l6ZT0iMTIiIGxlbmd0aEFkanVzdD0ic3BhY2luZyIgdGV4dExlbmd0aD0iMTkyIiB4PSIzNTUiIHk9IjE3Ny4wMzEzIj5IaSYjNzg3NTtuIHRoJiM3ODgzOyB0cmFuZyBjaGkgdGkmIzc4NzE7dCBzJiM3ODQzO24gcGgmIzc4NDk7bTwvdGV4dD48cmVjdCBmaWxsPSIjRjFGMUYxIiBoZWlnaHQ9IjMyLjg0MzgiIHJ4PSIxMi41IiByeT0iMTIuNSIgc3R5bGU9InN0cm9rZTojMTgxODE4O3N0cm9rZS13aWR0aDowLjU7IiB3aWR0aD0iMTQ2IiB4PSIzNzgiIHk9IjIwOC41MzEzIi8+PHRleHQgZmlsbD0iIzAwMDAwMCIgZm9udC1mYW1pbHk9InNhbnMtc2VyaWYiIGZvbnQtc2l6ZT0iMTIiIGxlbmd0aEFkanVzdD0ic3BhY2luZyIgdGV4dExlbmd0aD0iMTI2IiB4PSIzODgiIHk9IjIyOS44NzUiPkJ1eWVyIG5oJiM3ODQ1O24gIk11YSBoJiMyMjQ7bmciPC90ZXh0Pjxwb2x5Z29uIGZpbGw9IiNGMUYxRjEiIHBvaW50cz0iNDAxLjUsMjYxLjM3NSw1MDAuNSwyNjEuMzc1LDUxMi41LDI3My4zNzUsNTAwLjUsMjg1LjM3NSw0MDEuNSwyODUuMzc1LDM4OS41LDI3My4zNzUsNDAxLjUsMjYxLjM3NSIgc3R5bGU9InN0cm9rZTojMTgxODE4O3N0cm9rZS13aWR0aDowLjU7Ii8+PHRleHQgZmlsbD0iIzAwMDAwMCIgZm9udC1mYW1pbHk9InNhbnMtc2VyaWYiIGZvbnQtc2l6ZT0iMTEiIGxlbmd0aEFkanVzdD0ic3BhY2luZyIgdGV4dExlbmd0aD0iOTkiIHg9IjQwMS41IiB5PSIyNzcuODg2NyI+UyYjNzg0MztuIHBoJiM3ODQ5O20gYyYjMjQyO24gaCYjMjI0O25nPzwvdGV4dD48dGV4dCBmaWxsPSIjMDAwMDAwIiBmb250LWZhbWlseT0ic2Fucy1zZXJpZiIgZm9udC1zaXplPSIxMSIgbGVuZ3RoQWRqdXN0PSJzcGFjaW5nIiB0ZXh0TGVuZ3RoPSIxNi41IiB4PSIzNzMiIHk9IjI3MiI+WWVzPC90ZXh0Pjx0ZXh0IGZpbGw9IiMwMDAwMDAiIGZvbnQtZmFtaWx5PSJzYW5zLXNlcmlmIiBmb250LXNpemU9IjExIiBsZW5ndGhBZGp1c3Q9InNwYWNpbmciIHRleHRMZW5ndGg9IjExIiB4PSI1MTIuNSIgeT0iMjcyIj5ObzwvdGV4dD48cmVjdCBmaWxsPSIjRjFGMUYxIiBoZWlnaHQ9IjMyLjg0MzgiIHJ4PSIxMi41IiByeT0iMTIuNSIgc3R5bGU9InN0cm9rZTojMTgxODE4O3N0cm9rZS13aWR0aDowLjU7IiB3aWR0aD0iMTc2IiB4PSIxNjAiIHk9IjI5NS4zNzUiLz48dGV4dCBmaWxsPSIjMDAwMDAwIiBmb250LWZhbWlseT0ic2Fucy1zZXJpZiIgZm9udC1zaXplPSIxMiIgbGVuZ3RoQWRqdXN0PSJzcGFjaW5nIiB0ZXh0TGVuZ3RoPSIxNTYiIHg9IjE3MCIgeT0iMzE2LjcxODgiPlRoJiMyMzQ7bSBzJiM3ODQzO24gcGgmIzc4NDk7bSB2JiMyMjQ7byBnaSYjNzg4NzsgaCYjMjI0O25nPC90ZXh0PjxyZWN0IGZpbGw9IiNGMUYxRjEiIGhlaWdodD0iMzIuODQzOCIgcng9IjEyLjUiIHJ5PSIxMi41IiBzdHlsZT0ic3Ryb2tlOiMxODE4MTg7c3Ryb2tlLXdpZHRoOjAuNTsiIHdpZHRoPSIxNTIiIHg9IjE3MiIgeT0iMzQ4LjIxODgiLz48dGV4dCBmaWxsPSIjMDAwMDAwIiBmb250LWZhbWlseT0ic2Fucy1zZXJpZiIgZm9udC1zaXplPSIxMiIgbGVuZ3RoQWRqdXN0PSJzcGFjaW5nIiB0ZXh0TGVuZ3RoPSIxMzIiIHg9IjE4MiIgeT0iMzY5LjU2MjUiPkMmIzc4NTM7cCBuaCYjNzg1Mzt0IHQmIzc4OTM7bmcgZ2kmIzc4ODc7IGgmIzIyNDtuZzwvdGV4dD48cmVjdCBmaWxsPSIjRjFGMUYxIiBoZWlnaHQ9IjMyLjg0MzgiIHJ4PSIxMi41IiByeT0iMTIuNSIgc3R5bGU9InN0cm9rZTojMTgxODE4O3N0cm9rZS13aWR0aDowLjU7IiB3aWR0aD0iMTQ2IiB4PSIxNzUiIHk9IjQwMS4wNjI1Ii8+PHRleHQgZmlsbD0iIzAwMDAwMCIgZm9udC1mYW1pbHk9InNhbnMtc2VyaWYiIGZvbnQtc2l6ZT0iMTIiIGxlbmd0aEFkanVzdD0ic3BhY2luZyIgdGV4dExlbmd0aD0iMTI2IiB4PSIxODUiIHk9IjQyMi40MDYzIj5IaSYjNzg3NTtuIHRoJiM3ODgzOyBnaSYjNzg4NzsgaCYjMjI0O25nIG0mIzc4OTk7aTwvdGV4dD48cG9seWdvbiBmaWxsPSIjRjFGMUYxIiBwb2ludHM9IjE4Miw0NTMuOTA2MywzMTQsNDUzLjkwNjMsMzI2LDQ2NS45MDYzLDMxNCw0NzcuOTA2MywxODIsNDc3LjkwNjMsMTcwLDQ2NS45MDYzLDE4Miw0NTMuOTA2MyIgc3R5bGU9InN0cm9rZTojMTgxODE4O3N0cm9rZS13aWR0aDowLjU7Ii8+PHRleHQgZmlsbD0iIzAwMDAwMCIgZm9udC1mYW1pbHk9InNhbnMtc2VyaWYiIGZvbnQtc2l6ZT0iMTEiIGxlbmd0aEFkanVzdD0ic3BhY2luZyIgdGV4dExlbmd0aD0iMTMyIiB4PSIxODIiIHk9IjQ3MC40MTgiPkJ1eWVyIGNoJiM3ODg1O24gIlRoYW5oIHRvJiMyMjU7biI/PC90ZXh0Pjx0ZXh0IGZpbGw9IiMwMDAwMDAiIGZvbnQtZmFtaWx5PSJzYW5zLXNlcmlmIiBmb250LXNpemU9IjExIiBsZW5ndGhBZGp1c3Q9InNwYWNpbmciIHRleHRMZW5ndGg9IjE2LjUiIHg9IjE1My41IiB5PSI0NjQuNTMxMyI+WWVzPC90ZXh0Pjx0ZXh0IGZpbGw9IiMwMDAwMDAiIGZvbnQtZmFtaWx5PSJzYW5zLXNlcmlmIiBmb250LXNpemU9IjExIiBsZW5ndGhBZGp1c3Q9InNwYWNpbmciIHRleHRMZW5ndGg9IjExIiB4PSIzMjYiIHk9IjQ2NC41MzEzIj5ObzwvdGV4dD48cmVjdCBmaWxsPSIjRjFGMUYxIiBoZWlnaHQ9IjMyLjg0MzgiIHJ4PSIxMi41IiByeT0iMTIuNSIgc3R5bGU9InN0cm9rZTojMTgxODE4O3N0cm9rZS13aWR0aDowLjU7IiB3aWR0aD0iMjA2IiB4PSIxMSIgeT0iNDg3LjkwNjMiLz48dGV4dCBmaWxsPSIjMDAwMDAwIiBmb250LWZhbWlseT0ic2Fucy1zZXJpZiIgZm9udC1zaXplPSIxMiIgbGVuZ3RoQWRqdXN0PSJzcGFjaW5nIiB0ZXh0TGVuZ3RoPSIxODYiIHg9IjIxIiB5PSI1MDkuMjUiPkNodXkmIzc4NzU7biAmIzI3MzsmIzc4NzE7biBxdXkgdHImIzIzNjtuaCB0aGFuaCB0byYjMjI1O248L3RleHQ+PHJlY3QgZmlsbD0iI0YxRjFGMSIgaGVpZ2h0PSIzMi44NDM4IiByeD0iMTIuNSIgcnk9IjEyLjUiIHN0eWxlPSJzdHJva2U6IzE4MTgxODtzdHJva2Utd2lkdGg6MC41OyIgd2lkdGg9IjI5MCIgeD0iMjM3IiB5PSI0ODcuOTA2MyIvPjx0ZXh0IGZpbGw9IiMwMDAwMDAiIGZvbnQtZmFtaWx5PSJzYW5zLXNlcmlmIiBmb250LXNpemU9IjEyIiBsZW5ndGhBZGp1c3Q9InNwYWNpbmciIHRleHRMZW5ndGg9IjI3MCIgeD0iMjQ3IiB5PSI1MDkuMjUiPlF1YXkgbCYjNzg0MTtpIHRyYW5nIGNoaSB0aSYjNzg3MTt0IGhvJiM3ODYzO2MgdGkmIzc4NzE7cCB0JiM3OTA5O2MgbXVhIHMmIzc4NTU7bTwvdGV4dD48cG9seWdvbiBmaWxsPSIjRjFGMUYxIiBwb2ludHM9IjI0OCw1MjYuNzUsMjYwLDUzOC43NSwyNDgsNTUwLjc1LDIzNiw1MzguNzUsMjQ4LDUyNi43NSIgc3R5bGU9InN0cm9rZTojMTgxODE4O3N0cm9rZS13aWR0aDowLjU7Ii8+PHJlY3QgZmlsbD0iI0YxRjFGMSIgaGVpZ2h0PSIzMi44NDM4IiByeD0iMTIuNSIgcnk9IjEyLjUiIHN0eWxlPSJzdHJva2U6IzE4MTgxODtzdHJva2Utd2lkdGg6MC41OyIgd2lkdGg9IjE5NCIgeD0iNTU3IiB5PSIyOTUuMzc1Ii8+PHRleHQgZmlsbD0iIzAwMDAwMCIgZm9udC1mYW1pbHk9InNhbnMtc2VyaWYiIGZvbnQtc2l6ZT0iMTIiIGxlbmd0aEFkanVzdD0ic3BhY2luZyIgdGV4dExlbmd0aD0iMTc0IiB4PSI1NjciIHk9IjMxNi43MTg4Ij5UaCYjMjQ0O25nIGImIzIyNTtvICJTJiM3ODQzO24gcGgmIzc4NDk7bSBoJiM3ODcxO3QgaCYjMjI0O25nIjwvdGV4dD48cG9seWdvbiBmaWxsPSIjRjFGMUYxIiBwb2ludHM9IjQ1MSw1NTYuNzUsNDYzLDU2OC43NSw0NTEsNTgwLjc1LDQzOSw1NjguNzUsNDUxLDU1Ni43NSIgc3R5bGU9InN0cm9rZTojMTgxODE4O3N0cm9rZS13aWR0aDowLjU7Ii8+PGVsbGlwc2UgY3g9IjQ1MSIgY3k9IjYxMS43NSIgZmlsbD0ibm9uZSIgcng9IjExIiByeT0iMTEiIHN0eWxlPSJzdHJva2U6IzIyMjIyMjtzdHJva2Utd2lkdGg6MTsiLz48ZWxsaXBzZSBjeD0iNDUxIiBjeT0iNjExLjc1IiBmaWxsPSIjMjIyMjIyIiByeD0iNiIgcnk9IjYiIHN0eWxlPSJzdHJva2U6IzIyMjIyMjtzdHJva2Utd2lkdGg6MTsiLz48bGluZSBzdHlsZT0ic3Ryb2tlOiMxODE4MTg7c3Ryb2tlLXdpZHRoOjE7IiB4MT0iNDUxIiB4Mj0iNDUxIiB5MT0iMzAiIHkyPSI1MCIvPjxwb2x5Z29uIGZpbGw9IiMxODE4MTgiIHBvaW50cz0iNDQ3LDQwLDQ1MSw1MCw0NTUsNDAsNDUxLDQ0IiBzdHlsZT0ic3Ryb2tlOiMxODE4MTg7c3Ryb2tlLXdpZHRoOjE7Ii8+PGxpbmUgc3R5bGU9InN0cm9rZTojMTgxODE4O3N0cm9rZS13aWR0aDoxOyIgeDE9IjQ1MSIgeDI9IjQ1MSIgeTE9IjgyLjg0MzgiIHkyPSIxMDIuODQzOCIvPjxwb2x5Z29uIGZpbGw9IiMxODE4MTgiIHBvaW50cz0iNDQ3LDkyLjg0MzgsNDUxLDEwMi44NDM4LDQ1NSw5Mi44NDM4LDQ1MSw5Ni44NDM4IiBzdHlsZT0ic3Ryb2tlOiMxODE4MTg7c3Ryb2tlLXdpZHRoOjE7Ii8+PGxpbmUgc3R5bGU9InN0cm9rZTojMTgxODE4O3N0cm9rZS13aWR0aDoxOyIgeDE9IjQ1MSIgeDI9IjQ1MSIgeTE9IjEzNS42ODc1IiB5Mj0iMTU1LjY4NzUiLz48cG9seWdvbiBmaWxsPSIjMTgxODE4IiBwb2ludHM9IjQ0NywxNDUuNjg3NSw0NTEsMTU1LjY4NzUsNDU1LDE0NS42ODc1LDQ1MSwxNDkuNjg3NSIgc3R5bGU9InN0cm9rZTojMTgxODE4O3N0cm9rZS13aWR0aDoxOyIvPjxsaW5lIHN0eWxlPSJzdHJva2U6IzE4MTgxODtzdHJva2Utd2lkdGg6MTsiIHgxPSI0NTEiIHgyPSI0NTEiIHkxPSIxODguNTMxMyIgeTI9IjIwOC41MzEzIi8+PHBvbHlnb24gZmlsbD0iIzE4MTgxOCIgcG9pbnRzPSI0NDcsMTk4LjUzMTMsNDUxLDIwOC41MzEzLDQ1NSwxOTguNTMxMyw0NTEsMjAyLjUzMTMiIHN0eWxlPSJzdHJva2U6IzE4MTgxODtzdHJva2Utd2lkdGg6MTsiLz48bGluZSBzdHlsZT0ic3Ryb2tlOiMxODE4MTg7c3Ryb2tlLXdpZHRoOjE7IiB4MT0iMjQ4IiB4Mj0iMjQ4IiB5MT0iMzI4LjIxODgiIHkyPSIzNDguMjE4OCIvPjxwb2x5Z29uIGZpbGw9IiMxODE4MTgiIHBvaW50cz0iMjQ0LDMzOC4yMTg4LDI0OCwzNDguMjE4OCwyNTIsMzM4LjIxODgsMjQ4LDM0Mi4yMTg4IiBzdHlsZT0ic3Ryb2tlOiMxODE4MTg7c3Ryb2tlLXdpZHRoOjE7Ii8+PGxpbmUgc3R5bGU9InN0cm9rZTojMTgxODE4O3N0cm9rZS13aWR0aDoxOyIgeDE9IjI0OCIgeDI9IjI0OCIgeTE9IjM4MS4wNjI1IiB5Mj0iNDAxLjA2MjUiLz48cG9seWdvbiBmaWxsPSIjMTgxODE4IiBwb2ludHM9IjI0NCwzOTEuMDYyNSwyNDgsNDAxLjA2MjUsMjUyLDM5MS4wNjI1LDI0OCwzOTUuMDYyNSIgc3R5bGU9InN0cm9rZTojMTgxODE4O3N0cm9rZS13aWR0aDoxOyIvPjxsaW5lIHN0eWxlPSJzdHJva2U6IzE4MTgxODtzdHJva2Utd2lkdGg6MTsiIHgxPSIxNzAiIHgyPSIxMTQiIHkxPSI0NjUuOTA2MyIgeTI9IjQ2NS45MDYzIi8+PGxpbmUgc3R5bGU9InN0cm9rZTojMTgxODE4O3N0cm9rZS13aWR0aDoxOyIgeDE9IjExNCIgeDI9IjExNCIgeTE9IjQ2NS45MDYzIiB5Mj0iNDg3LjkwNjMiLz48cG9seWdvbiBmaWxsPSIjMTgxODE4IiBwb2ludHM9IjExMCw0NzcuOTA2MywxMTQsNDg3LjkwNjMsMTE4LDQ3Ny45MDYzLDExNCw0ODEuOTA2MyIgc3R5bGU9InN0cm9rZTojMTgxODE4O3N0cm9rZS13aWR0aDoxOyIvPjxsaW5lIHN0eWxlPSJzdHJva2U6IzE4MTgxODtzdHJva2Utd2lkdGg6MTsiIHgxPSIzMjYiIHgyPSIzODIiIHkxPSI0NjUuOTA2MyIgeTI9IjQ2NS45MDYzIi8+PGxpbmUgc3R5bGU9InN0cm9rZTojMTgxODE4O3N0cm9rZS13aWR0aDoxOyIgeDE9IjM4MiIgeDI9IjM4MiIgeTE9IjQ2NS45MDYzIiB5Mj0iNDg3LjkwNjMiLz48cG9seWdvbiBmaWxsPSIjMTgxODE4IiBwb2ludHM9IjM3OCw0NzcuOTA2MywzODIsNDg3LjkwNjMsMzg2LDQ3Ny45MDYzLDM4Miw0ODEuOTA2MyIgc3R5bGU9InN0cm9rZTojMTgxODE4O3N0cm9rZS13aWR0aDoxOyIvPjxsaW5lIHN0eWxlPSJzdHJva2U6IzE4MTgxODtzdHJva2Utd2lkdGg6MTsiIHgxPSIxMTQiIHgyPSIxMTQiIHkxPSI1MjAuNzUiIHkyPSI1MzguNzUiLz48bGluZSBzdHlsZT0ic3Ryb2tlOiMxODE4MTg7c3Ryb2tlLXdpZHRoOjE7IiB4MT0iMTE0IiB4Mj0iMjM2IiB5MT0iNTM4Ljc1IiB5Mj0iNTM4Ljc1Ii8+PHBvbHlnb24gZmlsbD0iIzE4MTgxOCIgcG9pbnRzPSIyMjYsNTM0Ljc1LDIzNiw1MzguNzUsMjI2LDU0Mi43NSwyMzAsNTM4Ljc1IiBzdHlsZT0ic3Ryb2tlOiMxODE4MTg7c3Ryb2tlLXdpZHRoOjE7Ii8+PGxpbmUgc3R5bGU9InN0cm9rZTojMTgxODE4O3N0cm9rZS13aWR0aDoxOyIgeDE9IjM4MiIgeDI9IjM4MiIgeTE9IjUyMC43NSIgeTI9IjUzOC43NSIvPjxsaW5lIHN0eWxlPSJzdHJva2U6IzE4MTgxODtzdHJva2Utd2lkdGg6MTsiIHgxPSIzODIiIHgyPSIyNjAiIHkxPSI1MzguNzUiIHkyPSI1MzguNzUiLz48cG9seWdvbiBmaWxsPSIjMTgxODE4IiBwb2ludHM9IjI3MCw1MzQuNzUsMjYwLDUzOC43NSwyNzAsNTQyLjc1LDI2Niw1MzguNzUiIHN0eWxlPSJzdHJva2U6IzE4MTgxODtzdHJva2Utd2lkdGg6MTsiLz48bGluZSBzdHlsZT0ic3Ryb2tlOiMxODE4MTg7c3Ryb2tlLXdpZHRoOjE7IiB4MT0iMjQ4IiB4Mj0iMjQ4IiB5MT0iNDMzLjkwNjMiIHkyPSI0NTMuOTA2MyIvPjxwb2x5Z29uIGZpbGw9IiMxODE4MTgiIHBvaW50cz0iMjQ0LDQ0My45MDYzLDI0OCw0NTMuOTA2MywyNTIsNDQzLjkwNjMsMjQ4LDQ0Ny45MDYzIiBzdHlsZT0ic3Ryb2tlOiMxODE4MTg7c3Ryb2tlLXdpZHRoOjE7Ii8+PGxpbmUgc3R5bGU9InN0cm9rZTojMTgxODE4O3N0cm9rZS13aWR0aDoxOyIgeDE9IjM4OS41IiB4Mj0iMjQ4IiB5MT0iMjczLjM3NSIgeTI9IjI3My4zNzUiLz48bGluZSBzdHlsZT0ic3Ryb2tlOiMxODE4MTg7c3Ryb2tlLXdpZHRoOjE7IiB4MT0iMjQ4IiB4Mj0iMjQ4IiB5MT0iMjczLjM3NSIgeTI9IjI5NS4zNzUiLz48cG9seWdvbiBmaWxsPSIjMTgxODE4IiBwb2ludHM9IjI0NCwyODUuMzc1LDI0OCwyOTUuMzc1LDI1MiwyODUuMzc1LDI0OCwyODkuMzc1IiBzdHlsZT0ic3Ryb2tlOiMxODE4MTg7c3Ryb2tlLXdpZHRoOjE7Ii8+PGxpbmUgc3R5bGU9InN0cm9rZTojMTgxODE4O3N0cm9rZS13aWR0aDoxOyIgeDE9IjUxMi41IiB4Mj0iNjU0IiB5MT0iMjczLjM3NSIgeTI9IjI3My4zNzUiLz48bGluZSBzdHlsZT0ic3Ryb2tlOiMxODE4MTg7c3Ryb2tlLXdpZHRoOjE7IiB4MT0iNjU0IiB4Mj0iNjU0IiB5MT0iMjczLjM3NSIgeTI9IjI5NS4zNzUiLz48cG9seWdvbiBmaWxsPSIjMTgxODE4IiBwb2ludHM9IjY1MCwyODUuMzc1LDY1NCwyOTUuMzc1LDY1OCwyODUuMzc1LDY1NCwyODkuMzc1IiBzdHlsZT0ic3Ryb2tlOiMxODE4MTg7c3Ryb2tlLXdpZHRoOjE7Ii8+PGxpbmUgc3R5bGU9InN0cm9rZTojMTgxODE4O3N0cm9rZS13aWR0aDoxOyIgeDE9IjI0OCIgeDI9IjI0OCIgeTE9IjU1MC43NSIgeTI9IjU2OC43NSIvPjxsaW5lIHN0eWxlPSJzdHJva2U6IzE4MTgxODtzdHJva2Utd2lkdGg6MTsiIHgxPSIyNDgiIHgyPSI0MzkiIHkxPSI1NjguNzUiIHkyPSI1NjguNzUiLz48cG9seWdvbiBmaWxsPSIjMTgxODE4IiBwb2ludHM9IjQyOSw1NjQuNzUsNDM5LDU2OC43NSw0MjksNTcyLjc1LDQzMyw1NjguNzUiIHN0eWxlPSJzdHJva2U6IzE4MTgxODtzdHJva2Utd2lkdGg6MTsiLz48bGluZSBzdHlsZT0ic3Ryb2tlOiMxODE4MTg7c3Ryb2tlLXdpZHRoOjE7IiB4MT0iNjU0IiB4Mj0iNjU0IiB5MT0iMzI4LjIxODgiIHkyPSI1NjguNzUiLz48bGluZSBzdHlsZT0ic3Ryb2tlOiMxODE4MTg7c3Ryb2tlLXdpZHRoOjE7IiB4MT0iNjU0IiB4Mj0iNDYzIiB5MT0iNTY4Ljc1IiB5Mj0iNTY4Ljc1Ii8+PHBvbHlnb24gZmlsbD0iIzE4MTgxOCIgcG9pbnRzPSI0NzMsNTY0Ljc1LDQ2Myw1NjguNzUsNDczLDU3Mi43NSw0NjksNTY4Ljc1IiBzdHlsZT0ic3Ryb2tlOiMxODE4MTg7c3Ryb2tlLXdpZHRoOjE7Ii8+PGxpbmUgc3R5bGU9InN0cm9rZTojMTgxODE4O3N0cm9rZS13aWR0aDoxOyIgeDE9IjQ1MSIgeDI9IjQ1MSIgeTE9IjI0MS4zNzUiIHkyPSIyNjEuMzc1Ii8+PHBvbHlnb24gZmlsbD0iIzE4MTgxOCIgcG9pbnRzPSI0NDcsMjUxLjM3NSw0NTEsMjYxLjM3NSw0NTUsMjUxLjM3NSw0NTEsMjU1LjM3NSIgc3R5bGU9InN0cm9rZTojMTgxODE4O3N0cm9rZS13aWR0aDoxOyIvPjxsaW5lIHN0eWxlPSJzdHJva2U6IzE4MTgxODtzdHJva2Utd2lkdGg6MTsiIHgxPSI0NTEiIHgyPSI0NTEiIHkxPSI1ODAuNzUiIHkyPSI2MDAuNzUiLz48cG9seWdvbiBmaWxsPSIjMTgxODE4IiBwb2ludHM9IjQ0Nyw1OTAuNzUsNDUxLDYwMC43NSw0NTUsNTkwLjc1LDQ1MSw1OTQuNzUiIHN0eWxlPSJzdHJva2U6IzE4MTgxODtzdHJva2Utd2lkdGg6MTsiLz48IS0tU1JDPVtQUDJuSWlIMDQ4UnhGQ01HQWxTQWJxQkduYVAxbENPb3hrTW8ydlZQYzZvNHI1VE9ZNFdBQXZpQmFhOUgxMTY0ZkIzT1V2NXphdmpEeFowdmN1TGJfbC1WVnh2QzFRYm9maVR2NFFRbUFKU2haMDJ2UUp1SXVBUXowcUxsWVA2X2JwM3dGbzFhZmRiMUk0WnU2ZURBOVJkYzBOQThKTGlwNGZ5QXF3d21Tel9KRkEwdnVtQUtDQ3NsNmhielBuempyek84eGJhVTBEVGhaNXBWNEdsbUJlVXhjRngyVmRlcWVWV0dtUmlBaXVhM0M5cm5fSFFGY3p0Z2pPSThrWnBzN2pfZ0poaGhrWUNMQURDLUtSYjNwUVpfTzZXRlYxUE1PZmtEYUJXcFJXYWVnSWpxM3lsUGpKbWxrajFESUgwR1JsQTJvRVh0d19icHNrWG1jT05XZFNrVHlJOEYyYllRZlhCX0lOOWZjWF9NX245eEpDcVc5ZHY0dUpGa2lkMGs1aXVtcU5Cd2ZmSGhOS2JtSHQxdmR4Ylp0cmlwOVBDal0tLT48L2c+PC9zdmc+;" vertex="1" parent="1">
            <mxGeometry x="1226" y="-453" width="2943.27" height="2445" as="geometry" />
          </mxCell>
        </UserObject>
      </root>
    </mxGraphModel>
  </diagram>
  <diagram id="i0UtdRbJVeA55Cjx6dtR" name="Cau4_SD">
    <mxGraphModel grid="0" page="0" gridSize="10" guides="1" tooltips="1" connect="1" arrows="1" fold="1" pageScale="1" pageWidth="827" pageHeight="1169" math="0" shadow="0">
      <root>
        <mxCell id="0" />
        <mxCell id="1" parent="0" />
        <UserObject label="" plantUmlData="{&#xa;  &quot;data&quot;: &quot;@startuml\nactor Buyer\nparticipant \&quot;Product Detail Page\&quot; as PDP\nparticipant \&quot;ShoppingCartService\&quot; as Cart\nparticipant \&quot;InventoryService\&quot; as Inv\nparticipant \&quot;Database\&quot; as DB\n\nBuyer -&gt; PDP: Mở trang chi tiết sản phẩm\nPDP -&gt; Inv: Kiểm tra tồn kho (productId)\nInv -&gt; DB: Truy vấn số lượng tồn kho\nDB --&gt; Inv: Trả về số lượng\nInv --&gt; PDP: Tồn kho hợp lệ\n\nBuyer -&gt; PDP: Nhấn \&quot;Mua hàng\&quot;\nPDP -&gt; Cart: addItem(productId, qty)\nCart -&gt; DB: Thêm sản phẩm vào giỏ hàng\nDB --&gt; Cart: Cập nhật thành công\nCart --&gt; PDP: Trả về giỏ hàng mới\nPDP --&gt; Buyer: Hiển thị giỏ hàng cập nhật\n\nalt Buyer chọn \&quot;Thanh toán\&quot;\n  Buyer -&gt; PDP: Nhấn \&quot;Thanh toán\&quot;\n  PDP -&gt; Cart: Bắt đầu quy trình Checkout\nend\n@enduml&quot;,&#xa;  &quot;format&quot;: &quot;svg&quot;&#xa;}" id="5VfAFOFKw9Nxxke4nW9W-1">
          <mxCell style="shape=image;noLabel=1;verticalAlign=top;aspect=fixed;imageAspect=0;image=data:image/svg+xml,PHN2ZyB4bWxucz0iaHR0cDovL3d3dy53My5vcmcvMjAwMC9zdmciIHhtbG5zOnhsaW5rPSJodHRwOi8vd3d3LnczLm9yZy8xOTk5L3hsaW5rIiBjb250ZW50U3R5bGVUeXBlPSJ0ZXh0L2NzcyIgZGF0YS1kaWFncmFtLXR5cGU9IlNFUVVFTkNFIiBoZWlnaHQ9IjU3MnB4IiBwcmVzZXJ2ZUFzcGVjdFJhdGlvPSJub25lIiBzdHlsZT0id2lkdGg6ODAwcHg7aGVpZ2h0OjU3MnB4O2JhY2tncm91bmQ6I0ZGRkZGRjsiIHZlcnNpb249IjEuMSIgdmlld0JveD0iMCAwIDgwMCA1NzIiIHdpZHRoPSI4MDBweCIgem9vbUFuZFBhbj0ibWFnbmlmeSI+PGRlZnMvPjxnPjxyZWN0IGZpbGw9Im5vbmUiIGhlaWdodD0iNzEuNzQyMiIgc3R5bGU9InN0cm9rZTojMDAwMDAwO3N0cm9rZS13aWR0aDoxLjU7IiB3aWR0aD0iNTAwIiB4PSIxMCIgeT0iNDA0LjAzOTEiLz48Zz48dGl0bGU+QnV5ZXI8L3RpdGxlPjxyZWN0IGZpbGw9IiMwMDAwMDAiIGZpbGwtb3BhY2l0eT0iMC4wMDAwMCIgaGVpZ2h0PSI0MTIuNzk2OSIgd2lkdGg9IjgiIHg9IjM2LjUiIHk9Ijc5Ljk4NDQiLz48bGluZSBzdHlsZT0ic3Ryb2tlOiMxODE4MTg7c3Ryb2tlLXdpZHRoOjAuNTtzdHJva2UtZGFzaGFycmF5OjUuMCw1LjA7IiB4MT0iNDAiIHgyPSI0MCIgeTE9Ijc5Ljk4NDQiIHkyPSI0OTIuNzgxMyIvPjwvZz48Zz48dGl0bGU+UHJvZHVjdCBEZXRhaWwgUGFnZTwvdGl0bGU+PHJlY3QgZmlsbD0iIzAwMDAwMCIgZmlsbC1vcGFjaXR5PSIwLjAwMDAwIiBoZWlnaHQ9IjQxMi43OTY5IiB3aWR0aD0iOCIgeD0iMjI5LjUiIHk9Ijc5Ljk4NDQiLz48bGluZSBzdHlsZT0ic3Ryb2tlOiMxODE4MTg7c3Ryb2tlLXdpZHRoOjAuNTtzdHJva2UtZGFzaGFycmF5OjUuMCw1LjA7IiB4MT0iMjMzIiB4Mj0iMjMzIiB5MT0iNzkuOTg0NCIgeTI9IjQ5Mi43ODEzIi8+PC9nPjxnPjx0aXRsZT5TaG9wcGluZ0NhcnRTZXJ2aWNlPC90aXRsZT48cmVjdCBmaWxsPSIjMDAwMDAwIiBmaWxsLW9wYWNpdHk9IjAuMDAwMDAiIGhlaWdodD0iNDEyLjc5NjkiIHdpZHRoPSI4IiB4PSI0MjIuNSIgeT0iNzkuOTg0NCIvPjxsaW5lIHN0eWxlPSJzdHJva2U6IzE4MTgxODtzdHJva2Utd2lkdGg6MC41O3N0cm9rZS1kYXNoYXJyYXk6NS4wLDUuMDsiIHgxPSI0MjYiIHgyPSI0MjYiIHkxPSI3OS45ODQ0IiB5Mj0iNDkyLjc4MTMiLz48L2c+PGc+PHRpdGxlPkludmVudG9yeVNlcnZpY2U8L3RpdGxlPjxyZWN0IGZpbGw9IiMwMDAwMDAiIGZpbGwtb3BhY2l0eT0iMC4wMDAwMCIgaGVpZ2h0PSI0MTIuNzk2OSIgd2lkdGg9IjgiIHg9IjU2OSIgeT0iNzkuOTg0NCIvPjxsaW5lIHN0eWxlPSJzdHJva2U6IzE4MTgxODtzdHJva2Utd2lkdGg6MC41O3N0cm9rZS1kYXNoYXJyYXk6NS4wLDUuMDsiIHgxPSI1NzMiIHgyPSI1NzMiIHkxPSI3OS45ODQ0IiB5Mj0iNDkyLjc4MTMiLz48L2c+PGc+PHRpdGxlPkRhdGFiYXNlPC90aXRsZT48cmVjdCBmaWxsPSIjMDAwMDAwIiBmaWxsLW9wYWNpdHk9IjAuMDAwMDAiIGhlaWdodD0iNDEyLjc5NjkiIHdpZHRoPSI4IiB4PSI3NTUuNSIgeT0iNzkuOTg0NCIvPjxsaW5lIHN0eWxlPSJzdHJva2U6IzE4MTgxODtzdHJva2Utd2lkdGg6MC41O3N0cm9rZS1kYXNoYXJyYXk6NS4wLDUuMDsiIHgxPSI3NTkuNSIgeDI9Ijc1OS41IiB5MT0iNzkuOTg0NCIgeTI9IjQ5Mi43ODEzIi8+PC9nPjxnIGNsYXNzPSJwYXJ0aWNpcGFudCBwYXJ0aWNpcGFudC1oZWFkIiBkYXRhLXBhcnRpY2lwYW50PSJCdXllciI+PHRleHQgZmlsbD0iIzAwMDAwMCIgZm9udC1mYW1pbHk9InNhbnMtc2VyaWYiIGZvbnQtc2l6ZT0iMTQiIGxlbmd0aEFkanVzdD0ic3BhY2luZyIgdGV4dExlbmd0aD0iMzUiIHg9IjIwIiB5PSI3OC4yMzQ0Ij5CdXllcjwvdGV4dD48ZWxsaXBzZSBjeD0iNDAuNSIgY3k9IjEzLjUiIGZpbGw9IiNFMkUyRjAiIHJ4PSI4IiByeT0iOCIgc3R5bGU9InN0cm9rZTojMTgxODE4O3N0cm9rZS13aWR0aDowLjU7Ii8+PHBhdGggZD0iTTQwLjUsMjEuNSBMNDAuNSw0OC41IE0yNy41LDI5LjUgTDUzLjUsMjkuNSBNNDAuNSw0OC41IEwyNy41LDYzLjUgTTQwLjUsNDguNSBMNTMuNSw2My41IiBmaWxsPSJub25lIiBzdHlsZT0ic3Ryb2tlOiMxODE4MTg7c3Ryb2tlLXdpZHRoOjAuNTsiLz48L2c+PGcgY2xhc3M9InBhcnRpY2lwYW50IHBhcnRpY2lwYW50LXRhaWwiIGRhdGEtcGFydGljaXBhbnQ9IkJ1eWVyIj48dGV4dCBmaWxsPSIjMDAwMDAwIiBmb250LWZhbWlseT0ic2Fucy1zZXJpZiIgZm9udC1zaXplPSIxNCIgbGVuZ3RoQWRqdXN0PSJzcGFjaW5nIiB0ZXh0TGVuZ3RoPSIzNSIgeD0iMjAiIHk9IjUwNS4wMTU2Ij5CdXllcjwvdGV4dD48ZWxsaXBzZSBjeD0iNDAuNSIgY3k9IjUxNS4yNjU2IiBmaWxsPSIjRTJFMkYwIiByeD0iOCIgcnk9IjgiIHN0eWxlPSJzdHJva2U6IzE4MTgxODtzdHJva2Utd2lkdGg6MC41OyIvPjxwYXRoIGQ9Ik00MC41LDUyMy4yNjU2IEw0MC41LDU1MC4yNjU2IE0yNy41LDUzMS4yNjU2IEw1My41LDUzMS4yNjU2IE00MC41LDU1MC4yNjU2IEwyNy41LDU2NS4yNjU2IE00MC41LDU1MC4yNjU2IEw1My41LDU2NS4yNjU2IiBmaWxsPSJub25lIiBzdHlsZT0ic3Ryb2tlOiMxODE4MTg7c3Ryb2tlLXdpZHRoOjAuNTsiLz48L2c+PGcgY2xhc3M9InBhcnRpY2lwYW50IHBhcnRpY2lwYW50LWhlYWQiIGRhdGEtcGFydGljaXBhbnQ9IlBEUCI+PHJlY3QgZmlsbD0iI0UyRTJGMCIgaGVpZ2h0PSIyOC45ODQ0IiByeD0iMi41IiByeT0iMi41IiBzdHlsZT0ic3Ryb2tlOiMxODE4MTg7c3Ryb2tlLXdpZHRoOjAuNTsiIHdpZHRoPSIxNDciIHg9IjE2MCIgeT0iNTAiLz48dGV4dCBmaWxsPSIjMDAwMDAwIiBmb250LWZhbWlseT0ic2Fucy1zZXJpZiIgZm9udC1zaXplPSIxNCIgbGVuZ3RoQWRqdXN0PSJzcGFjaW5nIiB0ZXh0TGVuZ3RoPSIxMzMiIHg9IjE2NyIgeT0iNzAuMjM0NCI+UHJvZHVjdCBEZXRhaWwgUGFnZTwvdGV4dD48L2c+PGcgY2xhc3M9InBhcnRpY2lwYW50IHBhcnRpY2lwYW50LXRhaWwiIGRhdGEtcGFydGljaXBhbnQ9IlBEUCI+PHJlY3QgZmlsbD0iI0UyRTJGMCIgaGVpZ2h0PSIyOC45ODQ0IiByeD0iMi41IiByeT0iMi41IiBzdHlsZT0ic3Ryb2tlOiMxODE4MTg7c3Ryb2tlLXdpZHRoOjAuNTsiIHdpZHRoPSIxNDciIHg9IjE2MCIgeT0iNDkxLjc4MTMiLz48dGV4dCBmaWxsPSIjMDAwMDAwIiBmb250LWZhbWlseT0ic2Fucy1zZXJpZiIgZm9udC1zaXplPSIxNCIgbGVuZ3RoQWRqdXN0PSJzcGFjaW5nIiB0ZXh0TGVuZ3RoPSIxMzMiIHg9IjE2NyIgeT0iNTEyLjAxNTYiPlByb2R1Y3QgRGV0YWlsIFBhZ2U8L3RleHQ+PC9nPjxnIGNsYXNzPSJwYXJ0aWNpcGFudCBwYXJ0aWNpcGFudC1oZWFkIiBkYXRhLXBhcnRpY2lwYW50PSJDYXJ0Ij48cmVjdCBmaWxsPSIjRTJFMkYwIiBoZWlnaHQ9IjI4Ljk4NDQiIHJ4PSIyLjUiIHJ5PSIyLjUiIHN0eWxlPSJzdHJva2U6IzE4MTgxODtzdHJva2Utd2lkdGg6MC41OyIgd2lkdGg9IjE0NyIgeD0iMzUzIiB5PSI1MCIvPjx0ZXh0IGZpbGw9IiMwMDAwMDAiIGZvbnQtZmFtaWx5PSJzYW5zLXNlcmlmIiBmb250LXNpemU9IjE0IiBsZW5ndGhBZGp1c3Q9InNwYWNpbmciIHRleHRMZW5ndGg9IjEzMyIgeD0iMzYwIiB5PSI3MC4yMzQ0Ij5TaG9wcGluZ0NhcnRTZXJ2aWNlPC90ZXh0PjwvZz48ZyBjbGFzcz0icGFydGljaXBhbnQgcGFydGljaXBhbnQtdGFpbCIgZGF0YS1wYXJ0aWNpcGFudD0iQ2FydCI+PHJlY3QgZmlsbD0iI0UyRTJGMCIgaGVpZ2h0PSIyOC45ODQ0IiByeD0iMi41IiByeT0iMi41IiBzdHlsZT0ic3Ryb2tlOiMxODE4MTg7c3Ryb2tlLXdpZHRoOjAuNTsiIHdpZHRoPSIxNDciIHg9IjM1MyIgeT0iNDkxLjc4MTMiLz48dGV4dCBmaWxsPSIjMDAwMDAwIiBmb250LWZhbWlseT0ic2Fucy1zZXJpZiIgZm9udC1zaXplPSIxNCIgbGVuZ3RoQWRqdXN0PSJzcGFjaW5nIiB0ZXh0TGVuZ3RoPSIxMzMiIHg9IjM2MCIgeT0iNTEyLjAxNTYiPlNob3BwaW5nQ2FydFNlcnZpY2U8L3RleHQ+PC9nPjxnIGNsYXNzPSJwYXJ0aWNpcGFudCBwYXJ0aWNpcGFudC1oZWFkIiBkYXRhLXBhcnRpY2lwYW50PSJJbnYiPjxyZWN0IGZpbGw9IiNFMkUyRjAiIGhlaWdodD0iMjguOTg0NCIgcng9IjIuNSIgcnk9IjIuNSIgc3R5bGU9InN0cm9rZTojMTgxODE4O3N0cm9rZS13aWR0aDowLjU7IiB3aWR0aD0iMTI2IiB4PSI1MTAiIHk9IjUwIi8+PHRleHQgZmlsbD0iIzAwMDAwMCIgZm9udC1mYW1pbHk9InNhbnMtc2VyaWYiIGZvbnQtc2l6ZT0iMTQiIGxlbmd0aEFkanVzdD0ic3BhY2luZyIgdGV4dExlbmd0aD0iMTEyIiB4PSI1MTciIHk9IjcwLjIzNDQiPkludmVudG9yeVNlcnZpY2U8L3RleHQ+PC9nPjxnIGNsYXNzPSJwYXJ0aWNpcGFudCBwYXJ0aWNpcGFudC10YWlsIiBkYXRhLXBhcnRpY2lwYW50PSJJbnYiPjxyZWN0IGZpbGw9IiNFMkUyRjAiIGhlaWdodD0iMjguOTg0NCIgcng9IjIuNSIgcnk9IjIuNSIgc3R5bGU9InN0cm9rZTojMTgxODE4O3N0cm9rZS13aWR0aDowLjU7IiB3aWR0aD0iMTI2IiB4PSI1MTAiIHk9IjQ5MS43ODEzIi8+PHRleHQgZmlsbD0iIzAwMDAwMCIgZm9udC1mYW1pbHk9InNhbnMtc2VyaWYiIGZvbnQtc2l6ZT0iMTQiIGxlbmd0aEFkanVzdD0ic3BhY2luZyIgdGV4dExlbmd0aD0iMTEyIiB4PSI1MTciIHk9IjUxMi4wMTU2Ij5JbnZlbnRvcnlTZXJ2aWNlPC90ZXh0PjwvZz48ZyBjbGFzcz0icGFydGljaXBhbnQgcGFydGljaXBhbnQtaGVhZCIgZGF0YS1wYXJ0aWNpcGFudD0iREIiPjxyZWN0IGZpbGw9IiNFMkUyRjAiIGhlaWdodD0iMjguOTg0NCIgcng9IjIuNSIgcnk9IjIuNSIgc3R5bGU9InN0cm9rZTojMTgxODE4O3N0cm9rZS13aWR0aDowLjU7IiB3aWR0aD0iNzAiIHg9IjcyNC41IiB5PSI1MCIvPjx0ZXh0IGZpbGw9IiMwMDAwMDAiIGZvbnQtZmFtaWx5PSJzYW5zLXNlcmlmIiBmb250LXNpemU9IjE0IiBsZW5ndGhBZGp1c3Q9InNwYWNpbmciIHRleHRMZW5ndGg9IjU2IiB4PSI3MzEuNSIgeT0iNzAuMjM0NCI+RGF0YWJhc2U8L3RleHQ+PC9nPjxnIGNsYXNzPSJwYXJ0aWNpcGFudCBwYXJ0aWNpcGFudC10YWlsIiBkYXRhLXBhcnRpY2lwYW50PSJEQiI+PHJlY3QgZmlsbD0iI0UyRTJGMCIgaGVpZ2h0PSIyOC45ODQ0IiByeD0iMi41IiByeT0iMi41IiBzdHlsZT0ic3Ryb2tlOiMxODE4MTg7c3Ryb2tlLXdpZHRoOjAuNTsiIHdpZHRoPSI3MCIgeD0iNzI0LjUiIHk9IjQ5MS43ODEzIi8+PHRleHQgZmlsbD0iIzAwMDAwMCIgZm9udC1mYW1pbHk9InNhbnMtc2VyaWYiIGZvbnQtc2l6ZT0iMTQiIGxlbmd0aEFkanVzdD0ic3BhY2luZyIgdGV4dExlbmd0aD0iNTYiIHg9IjczMS41IiB5PSI1MTIuMDE1NiI+RGF0YWJhc2U8L3RleHQ+PC9nPjxnIGNsYXNzPSJtZXNzYWdlIiBkYXRhLXBhcnRpY2lwYW50LTE9IkJ1eWVyIiBkYXRhLXBhcnRpY2lwYW50LTI9IlBEUCI+PHBvbHlnb24gZmlsbD0iIzE4MTgxOCIgcG9pbnRzPSIyMjEuNSwxMDUuODk4NCwyMzEuNSwxMDkuODk4NCwyMjEuNSwxMTMuODk4NCwyMjUuNSwxMDkuODk4NCIgc3R5bGU9InN0cm9rZTojMTgxODE4O3N0cm9rZS13aWR0aDoxOyIvPjxsaW5lIHN0eWxlPSJzdHJva2U6IzE4MTgxODtzdHJva2Utd2lkdGg6MTsiIHgxPSI0MC41IiB4Mj0iMjI3LjUiIHkxPSIxMDkuODk4NCIgeTI9IjEwOS44OTg0Ii8+PHRleHQgZmlsbD0iIzAwMDAwMCIgZm9udC1mYW1pbHk9InNhbnMtc2VyaWYiIGZvbnQtc2l6ZT0iMTMiIGxlbmd0aEFkanVzdD0ic3BhY2luZyIgdGV4dExlbmd0aD0iMTY5IiB4PSI0Ny41IiB5PSIxMDYuMjczNCI+TSYjNzkwMzsgdHJhbmcgY2hpIHRpJiM3ODcxO3QgcyYjNzg0MztuIHBoJiM3ODQ5O208L3RleHQ+PC9nPjxnIGNsYXNzPSJtZXNzYWdlIiBkYXRhLXBhcnRpY2lwYW50LTE9IlBEUCIgZGF0YS1wYXJ0aWNpcGFudC0yPSJJbnYiPjxwb2x5Z29uIGZpbGw9IiMxODE4MTgiIHBvaW50cz0iNTYxLDEzMy44MTI1LDU3MSwxMzcuODEyNSw1NjEsMTQxLjgxMjUsNTY1LDEzNy44MTI1IiBzdHlsZT0ic3Ryb2tlOiMxODE4MTg7c3Ryb2tlLXdpZHRoOjE7Ii8+PGxpbmUgc3R5bGU9InN0cm9rZTojMTgxODE4O3N0cm9rZS13aWR0aDoxOyIgeDE9IjIzMy41IiB4Mj0iNTY3IiB5MT0iMTM3LjgxMjUiIHkyPSIxMzcuODEyNSIvPjx0ZXh0IGZpbGw9IiMwMDAwMDAiIGZvbnQtZmFtaWx5PSJzYW5zLXNlcmlmIiBmb250LXNpemU9IjEzIiBsZW5ndGhBZGp1c3Q9InNwYWNpbmciIHRleHRMZW5ndGg9IjE4MiIgeD0iMjQwLjUiIHk9IjEzNC4xODc1Ij5LaSYjNzg3NTttIHRyYSB0JiM3ODkxO24ga2hvIChwcm9kdWN0SWQpPC90ZXh0PjwvZz48ZyBjbGFzcz0ibWVzc2FnZSIgZGF0YS1wYXJ0aWNpcGFudC0xPSJJbnYiIGRhdGEtcGFydGljaXBhbnQtMj0iREIiPjxwb2x5Z29uIGZpbGw9IiMxODE4MTgiIHBvaW50cz0iNzQ3LjUsMTYxLjcyNjYsNzU3LjUsMTY1LjcyNjYsNzQ3LjUsMTY5LjcyNjYsNzUxLjUsMTY1LjcyNjYiIHN0eWxlPSJzdHJva2U6IzE4MTgxODtzdHJva2Utd2lkdGg6MTsiLz48bGluZSBzdHlsZT0ic3Ryb2tlOiMxODE4MTg7c3Ryb2tlLXdpZHRoOjE7IiB4MT0iNTczIiB4Mj0iNzUzLjUiIHkxPSIxNjUuNzI2NiIgeTI9IjE2NS43MjY2Ii8+PHRleHQgZmlsbD0iIzAwMDAwMCIgZm9udC1mYW1pbHk9InNhbnMtc2VyaWYiIGZvbnQtc2l6ZT0iMTMiIGxlbmd0aEFkanVzdD0ic3BhY2luZyIgdGV4dExlbmd0aD0iMTYyLjUiIHg9IjU4MCIgeT0iMTYyLjEwMTYiPlRydXkgdiYjNzg0NTtuIHMmIzc4ODk7IGwmIzQzMjsmIzc5MDc7bmcgdCYjNzg5MTtuIGtobzwvdGV4dD48L2c+PGcgY2xhc3M9Im1lc3NhZ2UiIGRhdGEtcGFydGljaXBhbnQtMT0iREIiIGRhdGEtcGFydGljaXBhbnQtMj0iSW52Ij48cG9seWdvbiBmaWxsPSIjMTgxODE4IiBwb2ludHM9IjU4NCwxODkuNjQwNiw1NzQsMTkzLjY0MDYsNTg0LDE5Ny42NDA2LDU4MCwxOTMuNjQwNiIgc3R5bGU9InN0cm9rZTojMTgxODE4O3N0cm9rZS13aWR0aDoxOyIvPjxsaW5lIHN0eWxlPSJzdHJva2U6IzE4MTgxODtzdHJva2Utd2lkdGg6MTtzdHJva2UtZGFzaGFycmF5OjIuMCwyLjA7IiB4MT0iNTc4IiB4Mj0iNzU4LjUiIHkxPSIxOTMuNjQwNiIgeTI9IjE5My42NDA2Ii8+PHRleHQgZmlsbD0iIzAwMDAwMCIgZm9udC1mYW1pbHk9InNhbnMtc2VyaWYiIGZvbnQtc2l6ZT0iMTMiIGxlbmd0aEFkanVzdD0ic3BhY2luZyIgdGV4dExlbmd0aD0iOTcuNSIgeD0iNTkwIiB5PSIxOTAuMDE1NiI+VHImIzc4NDM7IHYmIzc4NzM7IHMmIzc4ODk7IGwmIzQzMjsmIzc5MDc7bmc8L3RleHQ+PC9nPjxnIGNsYXNzPSJtZXNzYWdlIiBkYXRhLXBhcnRpY2lwYW50LTE9IkludiIgZGF0YS1wYXJ0aWNpcGFudC0yPSJQRFAiPjxwb2x5Z29uIGZpbGw9IiMxODE4MTgiIHBvaW50cz0iMjQ0LjUsMjE3LjU1NDcsMjM0LjUsMjIxLjU1NDcsMjQ0LjUsMjI1LjU1NDcsMjQwLjUsMjIxLjU1NDciIHN0eWxlPSJzdHJva2U6IzE4MTgxODtzdHJva2Utd2lkdGg6MTsiLz48bGluZSBzdHlsZT0ic3Ryb2tlOiMxODE4MTg7c3Ryb2tlLXdpZHRoOjE7c3Ryb2tlLWRhc2hhcnJheToyLjAsMi4wOyIgeDE9IjIzOC41IiB4Mj0iNTcyIiB5MT0iMjIxLjU1NDciIHkyPSIyMjEuNTU0NyIvPjx0ZXh0IGZpbGw9IiMwMDAwMDAiIGZvbnQtZmFtaWx5PSJzYW5zLXNlcmlmIiBmb250LXNpemU9IjEzIiBsZW5ndGhBZGp1c3Q9InNwYWNpbmciIHRleHRMZW5ndGg9IjkxIiB4PSIyNTAuNSIgeT0iMjE3LjkyOTciPlQmIzc4OTE7biBraG8gaCYjNzkwNztwIGwmIzc4Nzk7PC90ZXh0PjwvZz48ZyBjbGFzcz0ibWVzc2FnZSIgZGF0YS1wYXJ0aWNpcGFudC0xPSJCdXllciIgZGF0YS1wYXJ0aWNpcGFudC0yPSJQRFAiPjxwb2x5Z29uIGZpbGw9IiMxODE4MTgiIHBvaW50cz0iMjIxLjUsMjQ1LjQ2ODgsMjMxLjUsMjQ5LjQ2ODgsMjIxLjUsMjUzLjQ2ODgsMjI1LjUsMjQ5LjQ2ODgiIHN0eWxlPSJzdHJva2U6IzE4MTgxODtzdHJva2Utd2lkdGg6MTsiLz48bGluZSBzdHlsZT0ic3Ryb2tlOiMxODE4MTg7c3Ryb2tlLXdpZHRoOjE7IiB4MT0iNDAuNSIgeDI9IjIyNy41IiB5MT0iMjQ5LjQ2ODgiIHkyPSIyNDkuNDY4OCIvPjx0ZXh0IGZpbGw9IiMwMDAwMDAiIGZvbnQtZmFtaWx5PSJzYW5zLXNlcmlmIiBmb250LXNpemU9IjEzIiBsZW5ndGhBZGp1c3Q9InNwYWNpbmciIHRleHRMZW5ndGg9Ijk3LjUiIHg9IjQ3LjUiIHk9IjI0NS44NDM4Ij5OaCYjNzg0NTtuICJNdWEgaCYjMjI0O25nIjwvdGV4dD48L2c+PGcgY2xhc3M9Im1lc3NhZ2UiIGRhdGEtcGFydGljaXBhbnQtMT0iUERQIiBkYXRhLXBhcnRpY2lwYW50LTI9IkNhcnQiPjxwb2x5Z29uIGZpbGw9IiMxODE4MTgiIHBvaW50cz0iNDE0LjUsMjczLjM4MjgsNDI0LjUsMjc3LjM4MjgsNDE0LjUsMjgxLjM4MjgsNDE4LjUsMjc3LjM4MjgiIHN0eWxlPSJzdHJva2U6IzE4MTgxODtzdHJva2Utd2lkdGg6MTsiLz48bGluZSBzdHlsZT0ic3Ryb2tlOiMxODE4MTg7c3Ryb2tlLXdpZHRoOjE7IiB4MT0iMjMzLjUiIHgyPSI0MjAuNSIgeTE9IjI3Ny4zODI4IiB5Mj0iMjc3LjM4MjgiLz48dGV4dCBmaWxsPSIjMDAwMDAwIiBmb250LWZhbWlseT0ic2Fucy1zZXJpZiIgZm9udC1zaXplPSIxMyIgbGVuZ3RoQWRqdXN0PSJzcGFjaW5nIiB0ZXh0TGVuZ3RoPSIxNDkuNSIgeD0iMjQwLjUiIHk9IjI3My43NTc4Ij5hZGRJdGVtKHByb2R1Y3RJZCwgcXR5KTwvdGV4dD48L2c+PGcgY2xhc3M9Im1lc3NhZ2UiIGRhdGEtcGFydGljaXBhbnQtMT0iQ2FydCIgZGF0YS1wYXJ0aWNpcGFudC0yPSJEQiI+PHBvbHlnb24gZmlsbD0iIzE4MTgxOCIgcG9pbnRzPSI3NDcuNSwzMDEuMjk2OSw3NTcuNSwzMDUuMjk2OSw3NDcuNSwzMDkuMjk2OSw3NTEuNSwzMDUuMjk2OSIgc3R5bGU9InN0cm9rZTojMTgxODE4O3N0cm9rZS13aWR0aDoxOyIvPjxsaW5lIHN0eWxlPSJzdHJva2U6IzE4MTgxODtzdHJva2Utd2lkdGg6MTsiIHgxPSI0MjYuNSIgeDI9Ijc1My41IiB5MT0iMzA1LjI5NjkiIHkyPSIzMDUuMjk2OSIvPjx0ZXh0IGZpbGw9IiMwMDAwMDAiIGZvbnQtZmFtaWx5PSJzYW5zLXNlcmlmIiBmb250LXNpemU9IjEzIiBsZW5ndGhBZGp1c3Q9InNwYWNpbmciIHRleHRMZW5ndGg9IjE2OSIgeD0iNDMzLjUiIHk9IjMwMS42NzE5Ij5UaCYjMjM0O20gcyYjNzg0MztuIHBoJiM3ODQ5O20gdiYjMjI0O28gZ2kmIzc4ODc7IGgmIzIyNDtuZzwvdGV4dD48L2c+PGcgY2xhc3M9Im1lc3NhZ2UiIGRhdGEtcGFydGljaXBhbnQtMT0iREIiIGRhdGEtcGFydGljaXBhbnQtMj0iQ2FydCI+PHBvbHlnb24gZmlsbD0iIzE4MTgxOCIgcG9pbnRzPSI0MzcuNSwzMjkuMjEwOSw0MjcuNSwzMzMuMjEwOSw0MzcuNSwzMzcuMjEwOSw0MzMuNSwzMzMuMjEwOSIgc3R5bGU9InN0cm9rZTojMTgxODE4O3N0cm9rZS13aWR0aDoxOyIvPjxsaW5lIHN0eWxlPSJzdHJva2U6IzE4MTgxODtzdHJva2Utd2lkdGg6MTtzdHJva2UtZGFzaGFycmF5OjIuMCwyLjA7IiB4MT0iNDMxLjUiIHgyPSI3NTguNSIgeTE9IjMzMy4yMTA5IiB5Mj0iMzMzLjIxMDkiLz48dGV4dCBmaWxsPSIjMDAwMDAwIiBmb250LWZhbWlseT0ic2Fucy1zZXJpZiIgZm9udC1zaXplPSIxMyIgbGVuZ3RoQWRqdXN0PSJzcGFjaW5nIiB0ZXh0TGVuZ3RoPSIxMjMuNSIgeD0iNDQzLjUiIHk9IjMyOS41ODU5Ij5DJiM3ODUzO3AgbmgmIzc4NTM7dCB0aCYjMjI0O25oIGMmIzI0NDtuZzwvdGV4dD48L2c+PGcgY2xhc3M9Im1lc3NhZ2UiIGRhdGEtcGFydGljaXBhbnQtMT0iQ2FydCIgZGF0YS1wYXJ0aWNpcGFudC0yPSJQRFAiPjxwb2x5Z29uIGZpbGw9IiMxODE4MTgiIHBvaW50cz0iMjQ0LjUsMzU3LjEyNSwyMzQuNSwzNjEuMTI1LDI0NC41LDM2NS4xMjUsMjQwLjUsMzYxLjEyNSIgc3R5bGU9InN0cm9rZTojMTgxODE4O3N0cm9rZS13aWR0aDoxOyIvPjxsaW5lIHN0eWxlPSJzdHJva2U6IzE4MTgxODtzdHJva2Utd2lkdGg6MTtzdHJva2UtZGFzaGFycmF5OjIuMCwyLjA7IiB4MT0iMjM4LjUiIHgyPSI0MjUuNSIgeTE9IjM2MS4xMjUiIHkyPSIzNjEuMTI1Ii8+PHRleHQgZmlsbD0iIzAwMDAwMCIgZm9udC1mYW1pbHk9InNhbnMtc2VyaWYiIGZvbnQtc2l6ZT0iMTMiIGxlbmd0aEFkanVzdD0ic3BhY2luZyIgdGV4dExlbmd0aD0iMTIzLjUiIHg9IjI1MC41IiB5PSIzNTcuNSI+VHImIzc4NDM7IHYmIzc4NzM7IGdpJiM3ODg3OyBoJiMyMjQ7bmcgbSYjNzg5OTtpPC90ZXh0PjwvZz48ZyBjbGFzcz0ibWVzc2FnZSIgZGF0YS1wYXJ0aWNpcGFudC0xPSJQRFAiIGRhdGEtcGFydGljaXBhbnQtMj0iQnV5ZXIiPjxwb2x5Z29uIGZpbGw9IiMxODE4MTgiIHBvaW50cz0iNTEuNSwzODUuMDM5MSw0MS41LDM4OS4wMzkxLDUxLjUsMzkzLjAzOTEsNDcuNSwzODkuMDM5MSIgc3R5bGU9InN0cm9rZTojMTgxODE4O3N0cm9rZS13aWR0aDoxOyIvPjxsaW5lIHN0eWxlPSJzdHJva2U6IzE4MTgxODtzdHJva2Utd2lkdGg6MTtzdHJva2UtZGFzaGFycmF5OjIuMCwyLjA7IiB4MT0iNDUuNSIgeDI9IjIzMi41IiB5MT0iMzg5LjAzOTEiIHkyPSIzODkuMDM5MSIvPjx0ZXh0IGZpbGw9IiMwMDAwMDAiIGZvbnQtZmFtaWx5PSJzYW5zLXNlcmlmIiBmb250LXNpemU9IjEzIiBsZW5ndGhBZGp1c3Q9InNwYWNpbmciIHRleHRMZW5ndGg9IjE2OSIgeD0iNTcuNSIgeT0iMzg1LjQxNDEiPkhpJiM3ODc1O24gdGgmIzc4ODM7IGdpJiM3ODg3OyBoJiMyMjQ7bmcgYyYjNzg1MztwIG5oJiM3ODUzO3Q8L3RleHQ+PC9nPjxwYXRoIGQ9Ik0xMCw0MDQuMDM5MSBMNzQuNSw0MDQuMDM5MSBMNzQuNSw0MDkuOTUzMSBMNjQuNSw0MTkuOTUzMSBMMTAsNDE5Ljk1MzEgTDEwLDQwNC4wMzkxIiBmaWxsPSIjRUVFRUVFIiBzdHlsZT0ic3Ryb2tlOiMwMDAwMDA7c3Ryb2tlLXdpZHRoOjEuNTsiLz48cmVjdCBmaWxsPSJub25lIiBoZWlnaHQ9IjcxLjc0MjIiIHN0eWxlPSJzdHJva2U6IzAwMDAwMDtzdHJva2Utd2lkdGg6MS41OyIgd2lkdGg9IjUwMCIgeD0iMTAiIHk9IjQwNC4wMzkxIi8+PHRleHQgZmlsbD0iIzAwMDAwMCIgZm9udC1mYW1pbHk9InNhbnMtc2VyaWYiIGZvbnQtc2l6ZT0iMTMiIGZvbnQtd2VpZ2h0PSJib2xkIiBsZW5ndGhBZGp1c3Q9InNwYWNpbmciIHRleHRMZW5ndGg9IjE5LjUiIHg9IjI1IiB5PSI0MTcuMzI4MSI+YWx0PC90ZXh0Pjx0ZXh0IGZpbGw9IiMwMDAwMDAiIGZvbnQtZmFtaWx5PSJzYW5zLXNlcmlmIiBmb250LXNpemU9IjExIiBmb250LXdlaWdodD0iYm9sZCIgbGVuZ3RoQWRqdXN0PSJzcGFjaW5nIiB0ZXh0TGVuZ3RoPSIxMzcuNSIgeD0iODkuNSIgeT0iNDE2LjQzNzUiPltCdXllciBjaCYjNzg4NTtuICJUaGFuaCB0byYjMjI1O24iXTwvdGV4dD48ZyBjbGFzcz0ibWVzc2FnZSIgZGF0YS1wYXJ0aWNpcGFudC0xPSJCdXllciIgZGF0YS1wYXJ0aWNpcGFudC0yPSJQRFAiPjxwb2x5Z29uIGZpbGw9IiMxODE4MTgiIHBvaW50cz0iMjIxLjUsNDM1Ljg2NzIsMjMxLjUsNDM5Ljg2NzIsMjIxLjUsNDQzLjg2NzIsMjI1LjUsNDM5Ljg2NzIiIHN0eWxlPSJzdHJva2U6IzE4MTgxODtzdHJva2Utd2lkdGg6MTsiLz48bGluZSBzdHlsZT0ic3Ryb2tlOiMxODE4MTg7c3Ryb2tlLXdpZHRoOjE7IiB4MT0iNDAuNSIgeDI9IjIyNy41IiB5MT0iNDM5Ljg2NzIiIHkyPSI0MzkuODY3MiIvPjx0ZXh0IGZpbGw9IiMwMDAwMDAiIGZvbnQtZmFtaWx5PSJzYW5zLXNlcmlmIiBmb250LXNpemU9IjEzIiBsZW5ndGhBZGp1c3Q9InNwYWNpbmciIHRleHRMZW5ndGg9IjExMC41IiB4PSI0Ny41IiB5PSI0MzYuMjQyMiI+TmgmIzc4NDU7biAiVGhhbmggdG8mIzIyNTtuIjwvdGV4dD48L2c+PGcgY2xhc3M9Im1lc3NhZ2UiIGRhdGEtcGFydGljaXBhbnQtMT0iUERQIiBkYXRhLXBhcnRpY2lwYW50LTI9IkNhcnQiPjxwb2x5Z29uIGZpbGw9IiMxODE4MTgiIHBvaW50cz0iNDE0LjUsNDYzLjc4MTMsNDI0LjUsNDY3Ljc4MTMsNDE0LjUsNDcxLjc4MTMsNDE4LjUsNDY3Ljc4MTMiIHN0eWxlPSJzdHJva2U6IzE4MTgxODtzdHJva2Utd2lkdGg6MTsiLz48bGluZSBzdHlsZT0ic3Ryb2tlOiMxODE4MTg7c3Ryb2tlLXdpZHRoOjE7IiB4MT0iMjMzLjUiIHgyPSI0MjAuNSIgeTE9IjQ2Ny43ODEzIiB5Mj0iNDY3Ljc4MTMiLz48dGV4dCBmaWxsPSIjMDAwMDAwIiBmb250LWZhbWlseT0ic2Fucy1zZXJpZiIgZm9udC1zaXplPSIxMyIgbGVuZ3RoQWRqdXN0PSJzcGFjaW5nIiB0ZXh0TGVuZ3RoPSIxNjkiIHg9IjI0MC41IiB5PSI0NjQuMTU2MyI+QiYjNzg1NTt0ICYjMjczOyYjNzg0Nzt1IHF1eSB0ciYjMjM2O25oIENoZWNrb3V0PC90ZXh0PjwvZz48IS0tU1JDPVtSUDZfUmpHbTdDVHRGeUxOY1FYNE5vMTNYcm02SmdaTElScU5DNGFLTXhxdWdVLU5hc3Y0MzBtOGVPZ0hXUThBOEgwTDM0cG5tMTM0VV9YRC1GY2lrcnVnSGprVnRfVkZweEFXcllCaGp2S0xkUklhMnpyOUdxV01qWXR4V2YxTjlGS0EycmJOMlVHUVl0bW4xSXpMc3ROUXIzRS1sQXBpSFhTSDNFU2ZFSlVSb2gzVHpYWlpvb2NMSXY4bHYzZy12ZmFHa3QwdUZHbE1BU3d6LW1Zb3FqR2ViMFBmRl9tY2hGcm1QejBmRnRuajE3QzFQLUtLcHhMdGh2ZW0wRkJrbFM2TFFsNmFZLU5jdk9iV0FpMXZiYzlmLW9xc1ZsWGlNQ19UT0ZOdGZ0VHRSN0lPNTdjNnF4dHFxaDhmeS14YjU4LUkteHBCV3dsWXJtdWh4cnVfeGRJWFRnUjlVSS1YbmJqSjlfaUVPT2FmUDVkRWdNZVVPWl81RE1yRkg3V3pYNVZaanNRbzFzcDZzbk9yQi0xVExEc2RadzhwRnpudEM4cFU0b1cwMmlOdVl4NGVVb1ptS0ZEODJ1cnQ3dElDb1VJa0p1ZmRPVGs2clJueEN3NkI4cENYdjhoWTE3LVhUcy12LUw5OWpnVHNfNkdJMFZuX0ZPLVdvT2VvRl9tV19CZG5tdlNVcl9vRlBDVmxKQ3pLTExvckZPZEFiRnkwXS0tPjwvZz48L3N2Zz4=;" vertex="1" parent="1">
            <mxGeometry x="14" y="8" width="800" height="572" as="geometry" />
          </mxCell>
        </UserObject>
      </root>
    </mxGraphModel>
  </diagram>
  <diagram name="Cau6" id="zDiEij_kt8l14XavrKxw">
    <mxGraphModel grid="0" page="0" gridSize="10" guides="1" tooltips="1" connect="1" arrows="1" fold="1" pageScale="1" pageWidth="827" pageHeight="1169" math="0" shadow="0">
      <root>
        <mxCell id="0" />
        <mxCell id="1" parent="0" />
        <UserObject label="" plantUmlData="{&#xa;  &quot;data&quot;: &quot;@startuml\ntitle: Class Diagram - Shopping Cart Module\n\nclass User {\n  - userId : int\n  - username : string\n  - email : string\n  --\n  + getCart() : ShoppingCart\n}\n\nclass ShoppingCart {\n  - cartId : int\n  - items : List&lt;CartItem&gt;\n  --\n  + addItem(product: Product, qty: int)\n  + removeItem(productId: int)\n  + updateQuantity(productId: int, qty: int)\n  + getTotalPrice() : double\n}\n\nclass CartItem {\n  - productId : int\n  - productName : string\n  - quantity : int\n  - price : double\n  --\n  + getSubTotal() : double\n}\n\nclass Product {\n  - productId : int\n  - name : string\n  - description : string\n  - price : double\n  - stock : int\n}\n\n&#39; Relationships\nUser \&quot;1\&quot; -- \&quot;1\&quot; ShoppingCart\nShoppingCart \&quot;1\&quot; -- \&quot;*\&quot; CartItem\nCartItem \&quot;*\&quot; --&gt; \&quot;1\&quot; Product\n@enduml&quot;,&#xa;  &quot;format&quot;: &quot;svg&quot;&#xa;}" id="ZmU7J2anTgi3UnkYFKgR-1">
          <mxCell style="shape=image;noLabel=1;verticalAlign=top;aspect=fixed;imageAspect=0;image=data:image/svg+xml,PHN2ZyB4bWxucz0iaHR0cDovL3d3dy53My5vcmcvMjAwMC9zdmciIHhtbG5zOnhsaW5rPSJodHRwOi8vd3d3LnczLm9yZy8xOTk5L3hsaW5rIiBjb250ZW50U3R5bGVUeXBlPSJ0ZXh0L2NzcyIgZGF0YS1kaWFncmFtLXR5cGU9IkNMQVNTIiBoZWlnaHQ9IjcyMXB4IiBwcmVzZXJ2ZUFzcGVjdFJhdGlvPSJub25lIiBzdHlsZT0id2lkdGg6MzIwcHg7aGVpZ2h0OjcyMXB4O2JhY2tncm91bmQ6I0ZGRkZGRjsiIHZlcnNpb249IjEuMSIgdmlld0JveD0iMCAwIDMyMCA3MjEiIHdpZHRoPSIzMjBweCIgem9vbUFuZFBhbj0ibWFnbmlmeSI+PHRpdGxlPkNsYXNzIERpYWdyYW0gLSBTaG9wcGluZyBDYXJ0IE1vZHVsZTwvdGl0bGU+PGRlZnMvPjxnPjx0ZXh0IGZpbGw9IiMwMDAwMDAiIGZvbnQtZmFtaWx5PSJzYW5zLXNlcmlmIiBmb250LXNpemU9IjE0IiBmb250LXdlaWdodD0iYm9sZCIgbGVuZ3RoQWRqdXN0PSJzcGFjaW5nIiB0ZXh0TGVuZ3RoPSIyNTIiIHg9IjI3IiB5PSIyMy4yMzQ0Ij5DbGFzcyBEaWFncmFtIC0gU2hvcHBpbmcgQ2FydCBNb2R1bGU8L3RleHQ+PCEtLWNsYXNzIFVzZXItLT48ZyBjbGFzcz0iZW50aXR5IiBkYXRhLWVudGl0eT0iVXNlciIgZGF0YS1zb3VyY2UtbGluZT0iMyIgZGF0YS11aWQ9ImVudDAwMDIiIGlkPSJlbnRpdHlfVXNlciI+PHJlY3QgZmlsbD0iI0YxRjFGMSIgaGVpZ2h0PSIxMDcuOTM3NSIgcng9IjIuNSIgcnk9IjIuNSIgc3R5bGU9InN0cm9rZTojMTgxODE4O3N0cm9rZS13aWR0aDowLjU7IiB3aWR0aD0iMTk0IiB4PSI2MyIgeT0iNDIuOTg0NCIvPjxlbGxpcHNlIGN4PSIxNDEuNzUiIGN5PSI1OC45ODQ0IiBmaWxsPSIjQUREMUIyIiByeD0iMTEiIHJ5PSIxMSIgc3R5bGU9InN0cm9rZTojMTgxODE4O3N0cm9rZS13aWR0aDoxOyIvPjxwYXRoIGQ9Ik0xMzkuMzc1LDYzLjIzNDQgTDEzOS4zNzUsNjQuOTg0NCBMMTQ0LjMxMjUsNjQuOTg0NCBMMTQ0LjMxMjUsNjMuMjM0NCBMMTM5LjM3NSw2My4yMzQ0IFogTTE0MC4wNjI1LDYzLjkyMTkgUTE0MC4wNjI1LDYzLjkyMTkgMTQwLjA2MjUsNTQuNzM0NCBMMTM4LjMxMjUsNTQuNzM0NCBRMTM4LjMxMjUsNTQuNzM0NCAxMzguMzEyNSw2My45MjE5IEwxNDAuMDYyNSw2My45MjE5IFogTTE0My42MjUsNjMuOTIxOSBMMTQ1LjM3NSw2My45MjE5IFExNDUuMzc1LDYzLjkyMTkgMTQ1LjM3NSw2MS4xMDk0IEwxNDMuNjI1LDYxLjEwOTQgUTE0My42MjUsNjEuMTA5NCAxNDMuNjI1LDYzLjkyMTkgWiBNMTQzLjYyNSw1NC43MzQ0IFExNDMuNjI1LDU0LjczNDQgMTQzLjYyNSw1Ny41NDY5IEwxNDUuMzc1LDU3LjU0NjkgUTE0NS4zNzUsNTcuNTQ2OSAxNDUuMzc1LDU0LjczNDQgTDE0My42MjUsNTQuNzM0NCBaIE0xMzkuMzc1LDU1LjQyMTkgTDE0NC4zMTI1LDU1LjQyMTkgTDE0NC4zMTI1LDUzLjY3MTkgTDEzOS4zNzUsNTMuNjcxOSBMMTM5LjM3NSw1NS40MjE5IFogIiBmaWxsPSIjMDAwMDAwIi8+PHRleHQgZmlsbD0iIzAwMDAwMCIgZm9udC1mYW1pbHk9InNhbnMtc2VyaWYiIGZvbnQtc2l6ZT0iMTQiIGxlbmd0aEFkanVzdD0ic3BhY2luZyIgdGV4dExlbmd0aD0iMjgiIHg9IjE2Mi4yNSIgeT0iNjQuNzI2NiI+VXNlcjwvdGV4dD48bGluZSBzdHlsZT0ic3Ryb2tlOiMxODE4MTg7c3Ryb2tlLXdpZHRoOjAuNTsiIHgxPSI2NCIgeDI9IjI1NiIgeTE9Ijc0Ljk4NDQiIHkyPSI3NC45ODQ0Ii8+PHJlY3QgZmlsbD0ibm9uZSIgaGVpZ2h0PSI2IiBzdHlsZT0ic3Ryb2tlOiNDODI5MzA7c3Ryb2tlLXdpZHRoOjE7IiB3aWR0aD0iNiIgeD0iNzEiIHk9Ijg0Ljk3NjYiLz48dGV4dCBmaWxsPSIjMDAwMDAwIiBmb250LWZhbWlseT0ic2Fucy1zZXJpZiIgZm9udC1zaXplPSIxNCIgbGVuZ3RoQWRqdXN0PSJzcGFjaW5nIiB0ZXh0TGVuZ3RoPSI4NCIgeD0iODMiIHk9IjkyLjIxODgiPnVzZXJJZCA6IGludDwvdGV4dD48cmVjdCBmaWxsPSJub25lIiBoZWlnaHQ9IjYiIHN0eWxlPSJzdHJva2U6I0M4MjkzMDtzdHJva2Utd2lkdGg6MTsiIHdpZHRoPSI2IiB4PSI3MSIgeT0iOTkuOTYwOSIvPjx0ZXh0IGZpbGw9IiMwMDAwMDAiIGZvbnQtZmFtaWx5PSJzYW5zLXNlcmlmIiBmb250LXNpemU9IjE0IiBsZW5ndGhBZGp1c3Q9InNwYWNpbmciIHRleHRMZW5ndGg9IjExOSIgeD0iODMiIHk9IjEwNy4yMDMxIj51c2VybmFtZSA6IHN0cmluZzwvdGV4dD48cmVjdCBmaWxsPSJub25lIiBoZWlnaHQ9IjYiIHN0eWxlPSJzdHJva2U6I0M4MjkzMDtzdHJva2Utd2lkdGg6MTsiIHdpZHRoPSI2IiB4PSI3MSIgeT0iMTE0Ljk0NTMiLz48dGV4dCBmaWxsPSIjMDAwMDAwIiBmb250LWZhbWlseT0ic2Fucy1zZXJpZiIgZm9udC1zaXplPSIxNCIgbGVuZ3RoQWRqdXN0PSJzcGFjaW5nIiB0ZXh0TGVuZ3RoPSI5OCIgeD0iODMiIHk9IjEyMi4xODc1Ij5lbWFpbCA6IHN0cmluZzwvdGV4dD48bGluZSBzdHlsZT0ic3Ryb2tlOiMxODE4MTg7c3Ryb2tlLXdpZHRoOjE7IiB4MT0iNjQiIHgyPSIyNTYiIHkxPSIxMjcuOTM3NSIgeTI9IjEyNy45Mzc1Ii8+PGVsbGlwc2UgY3g9Ijc0IiBjeT0iMTQwLjkyOTciIGZpbGw9IiM4NEJFODQiIHJ4PSIzIiByeT0iMyIgc3R5bGU9InN0cm9rZTojMDM4MDQ4O3N0cm9rZS13aWR0aDoxOyIvPjx0ZXh0IGZpbGw9IiMwMDAwMDAiIGZvbnQtZmFtaWx5PSJzYW5zLXNlcmlmIiBmb250LXNpemU9IjE0IiBsZW5ndGhBZGp1c3Q9InNwYWNpbmciIHRleHRMZW5ndGg9IjE2OCIgeD0iODMiIHk9IjE0NS4xNzE5Ij5nZXRDYXJ0KCkgOiBTaG9wcGluZ0NhcnQ8L3RleHQ+PC9nPjwhLS1jbGFzcyBTaG9wcGluZ0NhcnQtLT48ZyBjbGFzcz0iZW50aXR5IiBkYXRhLWVudGl0eT0iU2hvcHBpbmdDYXJ0IiBkYXRhLXNvdXJjZS1saW5lPSIxMSIgZGF0YS11aWQ9ImVudDAwMDMiIGlkPSJlbnRpdHlfU2hvcHBpbmdDYXJ0Ij48cmVjdCBmaWxsPSIjRjFGMUYxIiBoZWlnaHQ9IjEzNy45MDYzIiByeD0iMi41IiByeT0iMi41IiBzdHlsZT0ic3Ryb2tlOiMxODE4MTg7c3Ryb2tlLXdpZHRoOjAuNTsiIHdpZHRoPSIzMDYiIHg9IjciIHk9IjIxMC45ODQ0Ii8+PGVsbGlwc2UgY3g9IjExMy43NSIgY3k9IjIyNi45ODQ0IiBmaWxsPSIjQUREMUIyIiByeD0iMTEiIHJ5PSIxMSIgc3R5bGU9InN0cm9rZTojMTgxODE4O3N0cm9rZS13aWR0aDoxOyIvPjxwYXRoIGQ9Ik0xMTEuMzc1LDIzMS4yMzQ0IEwxMTEuMzc1LDIzMi45ODQ0IEwxMTYuMzEyNSwyMzIuOTg0NCBMMTE2LjMxMjUsMjMxLjIzNDQgTDExMS4zNzUsMjMxLjIzNDQgWiBNMTEyLjA2MjUsMjMxLjkyMTkgUTExMi4wNjI1LDIzMS45MjE5IDExMi4wNjI1LDIyMi43MzQ0IEwxMTAuMzEyNSwyMjIuNzM0NCBRMTEwLjMxMjUsMjIyLjczNDQgMTEwLjMxMjUsMjMxLjkyMTkgTDExMi4wNjI1LDIzMS45MjE5IFogTTExNS42MjUsMjMxLjkyMTkgTDExNy4zNzUsMjMxLjkyMTkgUTExNy4zNzUsMjMxLjkyMTkgMTE3LjM3NSwyMjkuMTA5NCBMMTE1LjYyNSwyMjkuMTA5NCBRMTE1LjYyNSwyMjkuMTA5NCAxMTUuNjI1LDIzMS45MjE5IFogTTExNS42MjUsMjIyLjczNDQgUTExNS42MjUsMjIyLjczNDQgMTE1LjYyNSwyMjUuNTQ2OSBMMTE3LjM3NSwyMjUuNTQ2OSBRMTE3LjM3NSwyMjUuNTQ2OSAxMTcuMzc1LDIyMi43MzQ0IEwxMTUuNjI1LDIyMi43MzQ0IFogTTExMS4zNzUsMjIzLjQyMTkgTDExNi4zMTI1LDIyMy40MjE5IEwxMTYuMzEyNSwyMjEuNjcxOSBMMTExLjM3NSwyMjEuNjcxOSBMMTExLjM3NSwyMjMuNDIxOSBaICIgZmlsbD0iIzAwMDAwMCIvPjx0ZXh0IGZpbGw9IiMwMDAwMDAiIGZvbnQtZmFtaWx5PSJzYW5zLXNlcmlmIiBmb250LXNpemU9IjE0IiBsZW5ndGhBZGp1c3Q9InNwYWNpbmciIHRleHRMZW5ndGg9Ijg0IiB4PSIxMzQuMjUiIHk9IjIzMi43MjY2Ij5TaG9wcGluZ0NhcnQ8L3RleHQ+PGxpbmUgc3R5bGU9InN0cm9rZTojMTgxODE4O3N0cm9rZS13aWR0aDowLjU7IiB4MT0iOCIgeDI9IjMxMiIgeTE9IjI0Mi45ODQ0IiB5Mj0iMjQyLjk4NDQiLz48cmVjdCBmaWxsPSJub25lIiBoZWlnaHQ9IjYiIHN0eWxlPSJzdHJva2U6I0M4MjkzMDtzdHJva2Utd2lkdGg6MTsiIHdpZHRoPSI2IiB4PSIxNSIgeT0iMjUyLjk3NjYiLz48dGV4dCBmaWxsPSIjMDAwMDAwIiBmb250LWZhbWlseT0ic2Fucy1zZXJpZiIgZm9udC1zaXplPSIxNCIgbGVuZ3RoQWRqdXN0PSJzcGFjaW5nIiB0ZXh0TGVuZ3RoPSI4NCIgeD0iMjciIHk9IjI2MC4yMTg4Ij5jYXJ0SWQgOiBpbnQ8L3RleHQ+PHJlY3QgZmlsbD0ibm9uZSIgaGVpZ2h0PSI2IiBzdHlsZT0ic3Ryb2tlOiNDODI5MzA7c3Ryb2tlLXdpZHRoOjE7IiB3aWR0aD0iNiIgeD0iMTUiIHk9IjI2Ny45NjA5Ii8+PHRleHQgZmlsbD0iIzAwMDAwMCIgZm9udC1mYW1pbHk9InNhbnMtc2VyaWYiIGZvbnQtc2l6ZT0iMTQiIGxlbmd0aEFkanVzdD0ic3BhY2luZyIgdGV4dExlbmd0aD0iMTU0IiB4PSIyNyIgeT0iMjc1LjIwMzEiPml0ZW1zIDogTGlzdCZsdDtDYXJ0SXRlbSZndDs8L3RleHQ+PGxpbmUgc3R5bGU9InN0cm9rZTojMTgxODE4O3N0cm9rZS13aWR0aDoxOyIgeDE9IjgiIHgyPSIzMTIiIHkxPSIyODAuOTUzMSIgeTI9IjI4MC45NTMxIi8+PGVsbGlwc2UgY3g9IjE4IiBjeT0iMjkzLjk0NTMiIGZpbGw9IiM4NEJFODQiIHJ4PSIzIiByeT0iMyIgc3R5bGU9InN0cm9rZTojMDM4MDQ4O3N0cm9rZS13aWR0aDoxOyIvPjx0ZXh0IGZpbGw9IiMwMDAwMDAiIGZvbnQtZmFtaWx5PSJzYW5zLXNlcmlmIiBmb250LXNpemU9IjE0IiBsZW5ndGhBZGp1c3Q9InNwYWNpbmciIHRleHRMZW5ndGg9IjI0NSIgeD0iMjciIHk9IjI5OC4xODc1Ij5hZGRJdGVtKHByb2R1Y3Q6IFByb2R1Y3QsIHF0eTogaW50KTwvdGV4dD48ZWxsaXBzZSBjeD0iMTgiIGN5PSIzMDguOTI5NyIgZmlsbD0iIzg0QkU4NCIgcng9IjMiIHJ5PSIzIiBzdHlsZT0ic3Ryb2tlOiMwMzgwNDg7c3Ryb2tlLXdpZHRoOjE7Ii8+PHRleHQgZmlsbD0iIzAwMDAwMCIgZm9udC1mYW1pbHk9InNhbnMtc2VyaWYiIGZvbnQtc2l6ZT0iMTQiIGxlbmd0aEFkanVzdD0ic3BhY2luZyIgdGV4dExlbmd0aD0iMTgyIiB4PSIyNyIgeT0iMzEzLjE3MTkiPnJlbW92ZUl0ZW0ocHJvZHVjdElkOiBpbnQpPC90ZXh0PjxlbGxpcHNlIGN4PSIxOCIgY3k9IjMyMy45MTQxIiBmaWxsPSIjODRCRTg0IiByeD0iMyIgcnk9IjMiIHN0eWxlPSJzdHJva2U6IzAzODA0ODtzdHJva2Utd2lkdGg6MTsiLz48dGV4dCBmaWxsPSIjMDAwMDAwIiBmb250LWZhbWlseT0ic2Fucy1zZXJpZiIgZm9udC1zaXplPSIxNCIgbGVuZ3RoQWRqdXN0PSJzcGFjaW5nIiB0ZXh0TGVuZ3RoPSIyODAiIHg9IjI3IiB5PSIzMjguMTU2MyI+dXBkYXRlUXVhbnRpdHkocHJvZHVjdElkOiBpbnQsIHF0eTogaW50KTwvdGV4dD48ZWxsaXBzZSBjeD0iMTgiIGN5PSIzMzguODk4NCIgZmlsbD0iIzg0QkU4NCIgcng9IjMiIHJ5PSIzIiBzdHlsZT0ic3Ryb2tlOiMwMzgwNDg7c3Ryb2tlLXdpZHRoOjE7Ii8+PHRleHQgZmlsbD0iIzAwMDAwMCIgZm9udC1mYW1pbHk9InNhbnMtc2VyaWYiIGZvbnQtc2l6ZT0iMTQiIGxlbmd0aEFkanVzdD0ic3BhY2luZyIgdGV4dExlbmd0aD0iMTY4IiB4PSIyNyIgeT0iMzQzLjE0MDYiPmdldFRvdGFsUHJpY2UoKSA6IGRvdWJsZTwvdGV4dD48L2c+PCEtLWNsYXNzIENhcnRJdGVtLS0+PGcgY2xhc3M9ImVudGl0eSIgZGF0YS1lbnRpdHk9IkNhcnRJdGVtIiBkYXRhLXNvdXJjZS1saW5lPSIyMSIgZGF0YS11aWQ9ImVudDAwMDQiIGlkPSJlbnRpdHlfQ2FydEl0ZW0iPjxyZWN0IGZpbGw9IiNGMUYxRjEiIGhlaWdodD0iMTIyLjkyMTkiIHJ4PSIyLjUiIHJ5PSIyLjUiIHN0eWxlPSJzdHJva2U6IzE4MTgxODtzdHJva2Utd2lkdGg6MC41OyIgd2lkdGg9IjE4MCIgeD0iNzAiIHk9IjQwOC45ODQ0Ii8+PGVsbGlwc2UgY3g9IjEyNy43NSIgY3k9IjQyNC45ODQ0IiBmaWxsPSIjQUREMUIyIiByeD0iMTEiIHJ5PSIxMSIgc3R5bGU9InN0cm9rZTojMTgxODE4O3N0cm9rZS13aWR0aDoxOyIvPjxwYXRoIGQ9Ik0xMjUuMzc1LDQyOS4yMzQ0IEwxMjUuMzc1LDQzMC45ODQ0IEwxMzAuMzEyNSw0MzAuOTg0NCBMMTMwLjMxMjUsNDI5LjIzNDQgTDEyNS4zNzUsNDI5LjIzNDQgWiBNMTI2LjA2MjUsNDI5LjkyMTkgUTEyNi4wNjI1LDQyOS45MjE5IDEyNi4wNjI1LDQyMC43MzQ0IEwxMjQuMzEyNSw0MjAuNzM0NCBRMTI0LjMxMjUsNDIwLjczNDQgMTI0LjMxMjUsNDI5LjkyMTkgTDEyNi4wNjI1LDQyOS45MjE5IFogTTEyOS42MjUsNDI5LjkyMTkgTDEzMS4zNzUsNDI5LjkyMTkgUTEzMS4zNzUsNDI5LjkyMTkgMTMxLjM3NSw0MjcuMTA5NCBMMTI5LjYyNSw0MjcuMTA5NCBRMTI5LjYyNSw0MjcuMTA5NCAxMjkuNjI1LDQyOS45MjE5IFogTTEyOS42MjUsNDIwLjczNDQgUTEyOS42MjUsNDIwLjczNDQgMTI5LjYyNSw0MjMuNTQ2OSBMMTMxLjM3NSw0MjMuNTQ2OSBRMTMxLjM3NSw0MjMuNTQ2OSAxMzEuMzc1LDQyMC43MzQ0IEwxMjkuNjI1LDQyMC43MzQ0IFogTTEyNS4zNzUsNDIxLjQyMTkgTDEzMC4zMTI1LDQyMS40MjE5IEwxMzAuMzEyNSw0MTkuNjcxOSBMMTI1LjM3NSw0MTkuNjcxOSBMMTI1LjM3NSw0MjEuNDIxOSBaICIgZmlsbD0iIzAwMDAwMCIvPjx0ZXh0IGZpbGw9IiMwMDAwMDAiIGZvbnQtZmFtaWx5PSJzYW5zLXNlcmlmIiBmb250LXNpemU9IjE0IiBsZW5ndGhBZGp1c3Q9InNwYWNpbmciIHRleHRMZW5ndGg9IjU2IiB4PSIxNDguMjUiIHk9IjQzMC43MjY2Ij5DYXJ0SXRlbTwvdGV4dD48bGluZSBzdHlsZT0ic3Ryb2tlOiMxODE4MTg7c3Ryb2tlLXdpZHRoOjAuNTsiIHgxPSI3MSIgeDI9IjI0OSIgeTE9IjQ0MC45ODQ0IiB5Mj0iNDQwLjk4NDQiLz48cmVjdCBmaWxsPSJub25lIiBoZWlnaHQ9IjYiIHN0eWxlPSJzdHJva2U6I0M4MjkzMDtzdHJva2Utd2lkdGg6MTsiIHdpZHRoPSI2IiB4PSI3OCIgeT0iNDUwLjk3NjYiLz48dGV4dCBmaWxsPSIjMDAwMDAwIiBmb250LWZhbWlseT0ic2Fucy1zZXJpZiIgZm9udC1zaXplPSIxNCIgbGVuZ3RoQWRqdXN0PSJzcGFjaW5nIiB0ZXh0TGVuZ3RoPSIxMDUiIHg9IjkwIiB5PSI0NTguMjE4OCI+cHJvZHVjdElkIDogaW50PC90ZXh0PjxyZWN0IGZpbGw9Im5vbmUiIGhlaWdodD0iNiIgc3R5bGU9InN0cm9rZTojQzgyOTMwO3N0cm9rZS13aWR0aDoxOyIgd2lkdGg9IjYiIHg9Ijc4IiB5PSI0NjUuOTYwOSIvPjx0ZXh0IGZpbGw9IiMwMDAwMDAiIGZvbnQtZmFtaWx5PSJzYW5zLXNlcmlmIiBmb250LXNpemU9IjE0IiBsZW5ndGhBZGp1c3Q9InNwYWNpbmciIHRleHRMZW5ndGg9IjE0MCIgeD0iOTAiIHk9IjQ3My4yMDMxIj5wcm9kdWN0TmFtZSA6IHN0cmluZzwvdGV4dD48cmVjdCBmaWxsPSJub25lIiBoZWlnaHQ9IjYiIHN0eWxlPSJzdHJva2U6I0M4MjkzMDtzdHJva2Utd2lkdGg6MTsiIHdpZHRoPSI2IiB4PSI3OCIgeT0iNDgwLjk0NTMiLz48dGV4dCBmaWxsPSIjMDAwMDAwIiBmb250LWZhbWlseT0ic2Fucy1zZXJpZiIgZm9udC1zaXplPSIxNCIgbGVuZ3RoQWRqdXN0PSJzcGFjaW5nIiB0ZXh0TGVuZ3RoPSI5OCIgeD0iOTAiIHk9IjQ4OC4xODc1Ij5xdWFudGl0eSA6IGludDwvdGV4dD48cmVjdCBmaWxsPSJub25lIiBoZWlnaHQ9IjYiIHN0eWxlPSJzdHJva2U6I0M4MjkzMDtzdHJva2Utd2lkdGg6MTsiIHdpZHRoPSI2IiB4PSI3OCIgeT0iNDk1LjkyOTciLz48dGV4dCBmaWxsPSIjMDAwMDAwIiBmb250LWZhbWlseT0ic2Fucy1zZXJpZiIgZm9udC1zaXplPSIxNCIgbGVuZ3RoQWRqdXN0PSJzcGFjaW5nIiB0ZXh0TGVuZ3RoPSI5OCIgeD0iOTAiIHk9IjUwMy4xNzE5Ij5wcmljZSA6IGRvdWJsZTwvdGV4dD48bGluZSBzdHlsZT0ic3Ryb2tlOiMxODE4MTg7c3Ryb2tlLXdpZHRoOjE7IiB4MT0iNzEiIHgyPSIyNDkiIHkxPSI1MDguOTIxOSIgeTI9IjUwOC45MjE5Ii8+PGVsbGlwc2UgY3g9IjgxIiBjeT0iNTIxLjkxNDEiIGZpbGw9IiM4NEJFODQiIHJ4PSIzIiByeT0iMyIgc3R5bGU9InN0cm9rZTojMDM4MDQ4O3N0cm9rZS13aWR0aDoxOyIvPjx0ZXh0IGZpbGw9IiMwMDAwMDAiIGZvbnQtZmFtaWx5PSJzYW5zLXNlcmlmIiBmb250LXNpemU9IjE0IiBsZW5ndGhBZGp1c3Q9InNwYWNpbmciIHRleHRMZW5ndGg9IjE1NCIgeD0iOTAiIHk9IjUyNi4xNTYzIj5nZXRTdWJUb3RhbCgpIDogZG91YmxlPC90ZXh0PjwvZz48IS0tY2xhc3MgUHJvZHVjdC0tPjxnIGNsYXNzPSJlbnRpdHkiIGRhdGEtZW50aXR5PSJQcm9kdWN0IiBkYXRhLXNvdXJjZS1saW5lPSIzMCIgZGF0YS11aWQ9ImVudDAwMDUiIGlkPSJlbnRpdHlfUHJvZHVjdCI+PHJlY3QgZmlsbD0iI0YxRjFGMSIgaGVpZ2h0PSIxMjIuOTIxOSIgcng9IjIuNSIgcnk9IjIuNSIgc3R5bGU9InN0cm9rZTojMTgxODE4O3N0cm9rZS13aWR0aDowLjU7IiB3aWR0aD0iMTY2IiB4PSI3NyIgeT0iNTkxLjk4NDQiLz48ZWxsaXBzZSBjeD0iMTMxLjI1IiBjeT0iNjA3Ljk4NDQiIGZpbGw9IiNBREQxQjIiIHJ4PSIxMSIgcnk9IjExIiBzdHlsZT0ic3Ryb2tlOiMxODE4MTg7c3Ryb2tlLXdpZHRoOjE7Ii8+PHBhdGggZD0iTTEyOC44NzUsNjEyLjIzNDQgTDEyOC44NzUsNjEzLjk4NDQgTDEzMy44MTI1LDYxMy45ODQ0IEwxMzMuODEyNSw2MTIuMjM0NCBMMTI4Ljg3NSw2MTIuMjM0NCBaIE0xMjkuNTYyNSw2MTIuOTIxOSBRMTI5LjU2MjUsNjEyLjkyMTkgMTI5LjU2MjUsNjAzLjczNDQgTDEyNy44MTI1LDYwMy43MzQ0IFExMjcuODEyNSw2MDMuNzM0NCAxMjcuODEyNSw2MTIuOTIxOSBMMTI5LjU2MjUsNjEyLjkyMTkgWiBNMTMzLjEyNSw2MTIuOTIxOSBMMTM0Ljg3NSw2MTIuOTIxOSBRMTM0Ljg3NSw2MTIuOTIxOSAxMzQuODc1LDYxMC4xMDk0IEwxMzMuMTI1LDYxMC4xMDk0IFExMzMuMTI1LDYxMC4xMDk0IDEzMy4xMjUsNjEyLjkyMTkgWiBNMTMzLjEyNSw2MDMuNzM0NCBRMTMzLjEyNSw2MDMuNzM0NCAxMzMuMTI1LDYwNi41NDY5IEwxMzQuODc1LDYwNi41NDY5IFExMzQuODc1LDYwNi41NDY5IDEzNC44NzUsNjAzLjczNDQgTDEzMy4xMjUsNjAzLjczNDQgWiBNMTI4Ljg3NSw2MDQuNDIxOSBMMTMzLjgxMjUsNjA0LjQyMTkgTDEzMy44MTI1LDYwMi42NzE5IEwxMjguODc1LDYwMi42NzE5IEwxMjguODc1LDYwNC40MjE5IFogIiBmaWxsPSIjMDAwMDAwIi8+PHRleHQgZmlsbD0iIzAwMDAwMCIgZm9udC1mYW1pbHk9InNhbnMtc2VyaWYiIGZvbnQtc2l6ZT0iMTQiIGxlbmd0aEFkanVzdD0ic3BhY2luZyIgdGV4dExlbmd0aD0iNDkiIHg9IjE1MS43NSIgeT0iNjEzLjcyNjYiPlByb2R1Y3Q8L3RleHQ+PGxpbmUgc3R5bGU9InN0cm9rZTojMTgxODE4O3N0cm9rZS13aWR0aDowLjU7IiB4MT0iNzgiIHgyPSIyNDIiIHkxPSI2MjMuOTg0NCIgeTI9IjYyMy45ODQ0Ii8+PHJlY3QgZmlsbD0ibm9uZSIgaGVpZ2h0PSI2IiBzdHlsZT0ic3Ryb2tlOiNDODI5MzA7c3Ryb2tlLXdpZHRoOjE7IiB3aWR0aD0iNiIgeD0iODUiIHk9IjYzMy45NzY2Ii8+PHRleHQgZmlsbD0iIzAwMDAwMCIgZm9udC1mYW1pbHk9InNhbnMtc2VyaWYiIGZvbnQtc2l6ZT0iMTQiIGxlbmd0aEFkanVzdD0ic3BhY2luZyIgdGV4dExlbmd0aD0iMTA1IiB4PSI5NyIgeT0iNjQxLjIxODgiPnByb2R1Y3RJZCA6IGludDwvdGV4dD48cmVjdCBmaWxsPSJub25lIiBoZWlnaHQ9IjYiIHN0eWxlPSJzdHJva2U6I0M4MjkzMDtzdHJva2Utd2lkdGg6MTsiIHdpZHRoPSI2IiB4PSI4NSIgeT0iNjQ4Ljk2MDkiLz48dGV4dCBmaWxsPSIjMDAwMDAwIiBmb250LWZhbWlseT0ic2Fucy1zZXJpZiIgZm9udC1zaXplPSIxNCIgbGVuZ3RoQWRqdXN0PSJzcGFjaW5nIiB0ZXh0TGVuZ3RoPSI5MSIgeD0iOTciIHk9IjY1Ni4yMDMxIj5uYW1lIDogc3RyaW5nPC90ZXh0PjxyZWN0IGZpbGw9Im5vbmUiIGhlaWdodD0iNiIgc3R5bGU9InN0cm9rZTojQzgyOTMwO3N0cm9rZS13aWR0aDoxOyIgd2lkdGg9IjYiIHg9Ijg1IiB5PSI2NjMuOTQ1MyIvPjx0ZXh0IGZpbGw9IiMwMDAwMDAiIGZvbnQtZmFtaWx5PSJzYW5zLXNlcmlmIiBmb250LXNpemU9IjE0IiBsZW5ndGhBZGp1c3Q9InNwYWNpbmciIHRleHRMZW5ndGg9IjE0MCIgeD0iOTciIHk9IjY3MS4xODc1Ij5kZXNjcmlwdGlvbiA6IHN0cmluZzwvdGV4dD48cmVjdCBmaWxsPSJub25lIiBoZWlnaHQ9IjYiIHN0eWxlPSJzdHJva2U6I0M4MjkzMDtzdHJva2Utd2lkdGg6MTsiIHdpZHRoPSI2IiB4PSI4NSIgeT0iNjc4LjkyOTciLz48dGV4dCBmaWxsPSIjMDAwMDAwIiBmb250LWZhbWlseT0ic2Fucy1zZXJpZiIgZm9udC1zaXplPSIxNCIgbGVuZ3RoQWRqdXN0PSJzcGFjaW5nIiB0ZXh0TGVuZ3RoPSI5OCIgeD0iOTciIHk9IjY4Ni4xNzE5Ij5wcmljZSA6IGRvdWJsZTwvdGV4dD48cmVjdCBmaWxsPSJub25lIiBoZWlnaHQ9IjYiIHN0eWxlPSJzdHJva2U6I0M4MjkzMDtzdHJva2Utd2lkdGg6MTsiIHdpZHRoPSI2IiB4PSI4NSIgeT0iNjkzLjkxNDEiLz48dGV4dCBmaWxsPSIjMDAwMDAwIiBmb250LWZhbWlseT0ic2Fucy1zZXJpZiIgZm9udC1zaXplPSIxNCIgbGVuZ3RoQWRqdXN0PSJzcGFjaW5nIiB0ZXh0TGVuZ3RoPSI3NyIgeD0iOTciIHk9IjcwMS4xNTYzIj5zdG9jayA6IGludDwvdGV4dD48bGluZSBzdHlsZT0ic3Ryb2tlOiMxODE4MTg7c3Ryb2tlLXdpZHRoOjAuNTsiIHgxPSI3OCIgeDI9IjI0MiIgeTE9IjcwNi45MDYzIiB5Mj0iNzA2LjkwNjMiLz48L2c+PCEtLWxpbmsgVXNlciB0byBTaG9wcGluZ0NhcnQtLT48ZyBjbGFzcz0ibGluayIgZGF0YS1lbnRpdHktMT0iVXNlciIgZGF0YS1lbnRpdHktMj0iU2hvcHBpbmdDYXJ0IiBkYXRhLXNvdXJjZS1saW5lPSIzOSIgZGF0YS11aWQ9ImxuazYiIGlkPSJsaW5rX1VzZXJfU2hvcHBpbmdDYXJ0Ij48cGF0aCBjb2RlTGluZT0iMzkiIGQ9Ik0xNjAsMTUxLjMxNDQgQzE2MCwxNjkuOTc0NCAxNjAsMTkxLjE5NDQgMTYwLDIxMC45MDQ0IiBmaWxsPSJub25lIiBpZD0iVXNlci1TaG9wcGluZ0NhcnQiIHN0eWxlPSJzdHJva2U6IzE4MTgxODtzdHJva2Utd2lkdGg6MTsiLz48dGV4dCBmaWxsPSIjMDAwMDAwIiBmb250LWZhbWlseT0ic2Fucy1zZXJpZiIgZm9udC1zaXplPSIxMyIgbGVuZ3RoQWRqdXN0PSJzcGFjaW5nIiB0ZXh0TGVuZ3RoPSI2LjUiIHg9IjE1My42NjQ4IiB5PSIxNzEuMDc2NiI+MTwvdGV4dD48dGV4dCBmaWxsPSIjMDAwMDAwIiBmb250LWZhbWlseT0ic2Fucy1zZXJpZiIgZm9udC1zaXplPSIxMyIgbGVuZ3RoQWRqdXN0PSJzcGFjaW5nIiB0ZXh0TGVuZ3RoPSI2LjUiIHg9IjE1My42ODIiIHk9IjIwMS41MTI4Ij4xPC90ZXh0PjwvZz48IS0tbGluayBTaG9wcGluZ0NhcnQgdG8gQ2FydEl0ZW0tLT48ZyBjbGFzcz0ibGluayIgZGF0YS1lbnRpdHktMT0iU2hvcHBpbmdDYXJ0IiBkYXRhLWVudGl0eS0yPSJDYXJ0SXRlbSIgZGF0YS1zb3VyY2UtbGluZT0iNDAiIGRhdGEtdWlkPSJsbms3IiBpZD0ibGlua19TaG9wcGluZ0NhcnRfQ2FydEl0ZW0iPjxwYXRoIGNvZGVMaW5lPSI0MCIgZD0iTTE2MCwzNDkuMDM0NCBDMTYwLDM2OC41NDQ0IDE2MCwzODkuNjg0NCAxNjAsNDA4LjcyNDQiIGZpbGw9Im5vbmUiIGlkPSJTaG9wcGluZ0NhcnQtQ2FydEl0ZW0iIHN0eWxlPSJzdHJva2U6IzE4MTgxODtzdHJva2Utd2lkdGg6MTsiLz48dGV4dCBmaWxsPSIjMDAwMDAwIiBmb250LWZhbWlseT0ic2Fucy1zZXJpZiIgZm9udC1zaXplPSIxMyIgbGVuZ3RoQWRqdXN0PSJzcGFjaW5nIiB0ZXh0TGVuZ3RoPSI2LjUiIHg9IjE1My43MTY0IiB5PSIzNjkuMTY2NSI+MTwvdGV4dD48dGV4dCBmaWxsPSIjMDAwMDAwIiBmb250LWZhbWlseT0ic2Fucy1zZXJpZiIgZm9udC1zaXplPSIxMyIgbGVuZ3RoQWRqdXN0PSJzcGFjaW5nIiB0ZXh0TGVuZ3RoPSI2LjUiIHg9IjE1My42NDc3IiB5PSIzOTkuMzMxMiI+KjwvdGV4dD48L2c+PCEtLWxpbmsgQ2FydEl0ZW0gdG8gUHJvZHVjdC0tPjxnIGNsYXNzPSJsaW5rIiBkYXRhLWVudGl0eS0xPSJDYXJ0SXRlbSIgZGF0YS1lbnRpdHktMj0iUHJvZHVjdCIgZGF0YS1zb3VyY2UtbGluZT0iNDEiIGRhdGEtdWlkPSJsbms4IiBpZD0ibGlua19DYXJ0SXRlbV9Qcm9kdWN0Ij48cGF0aCBjb2RlTGluZT0iNDEiIGQ9Ik0xNjAsNTMyLjAwNDQgQzE2MCw1NTEuMjI0NCAxNjAsNTY2LjQ3NDQgMTYwLDU4NS43MTQ0IiBmaWxsPSJub25lIiBpZD0iQ2FydEl0ZW0tdG8tUHJvZHVjdCIgc3R5bGU9InN0cm9rZTojMTgxODE4O3N0cm9rZS13aWR0aDoxOyIvPjxwb2x5Z29uIGZpbGw9IiMxODE4MTgiIHBvaW50cz0iMTYwLDU5MS43MTQ0LDE2NCw1ODIuNzE0NCwxNjAsNTg2LjcxNDQsMTU2LDU4Mi43MTQ0LDE2MCw1OTEuNzE0NCIgc3R5bGU9InN0cm9rZTojMTgxODE4O3N0cm9rZS13aWR0aDoxOyIvPjx0ZXh0IGZpbGw9IiMwMDAwMDAiIGZvbnQtZmFtaWx5PSJzYW5zLXNlcmlmIiBmb250LXNpemU9IjEzIiBsZW5ndGhBZGp1c3Q9InNwYWNpbmciIHRleHRMZW5ndGg9IjYuNSIgeD0iMTUzLjY4MiIgeT0iNTUyLjIxNTYiPio8L3RleHQ+PHRleHQgZmlsbD0iIzAwMDAwMCIgZm9udC1mYW1pbHk9InNhbnMtc2VyaWYiIGZvbnQtc2l6ZT0iMTMiIGxlbmd0aEFkanVzdD0ic3BhY2luZyIgdGV4dExlbmd0aD0iNi41IiB4PSIxNTMuNjQ3NyIgeT0iNTgyLjMxOTkiPjE8L3RleHQ+PC9nPjwhLS1TUkM9W1ZMOTFKaUNtNEJwZDVRalVRODRTazRRZWJ0QTkxQVhHVTgxaGhyOEI5cXhqM0xBNS0zaVJ1d0huV3hXYWN6ZDlwaXBRZkNiVzBIaVpsOFM3QkllZFFpWFhUeDFqZ3ZpQURpOEhGNWRMNlNtbzZMWmw3WHJ5UFMycVppaklHRzZ3ZUg1ZUg4cUNVTjh5OEExTzJzcUlBRVY3M0xIOF9WcGJZZGszT1d6YXR1Rk01OHNRYWlqNEtuRk1kaHlWalFWeGRiV29pM3doMkFMd1BEYXdaWTZmV0VybFNHajdFZUtuZ3kxcE1EakZkNTlCRE1idGhIQTRCdnJlSURGZldkOHZZdkV6TUg5Y3d4SjRhNF9QUml5eDc5Q0RIY0VnU1RtYU1DSVVQX2l5SFhDOWJ1TkVDakNMeHhmenlGQWRaUllCVnJwQ1pyRVhicXd0ZjZzSkRrT2NrNmxiSHZwNmViVm1ZYVJxVl9nM1JkcU14akJZUmk1c21va3YxU2RYM3dKaG5SWXdSRG5YWi1SdkVmMVllWHkwXS0tPjwvZz48L3N2Zz4=;" parent="1" vertex="1">
            <mxGeometry x="40" y="-161" width="320" height="721" as="geometry" />
          </mxCell>
        </UserObject>
      </root>
    </mxGraphModel>
  </diagram>
</mxfile>
